<svg width="20" height="20" viewBox="0 0 20 20" fill="none" xmlns="http://www.w3.org/2000/svg">
<path d="M2.47667 1.77667C2.54031 1.77646 2.60394 1.77618 2.66758 1.77584C2.83925 1.77514 3.0109 1.77541 3.18257 1.7759C3.3629 1.7763 3.54324 1.77593 3.72358 1.77569C4.02632 1.7754 4.32906 1.77578 4.6318 1.77652C4.98095 1.77737 5.33009 1.7771 5.67923 1.77624C5.97994 1.77552 6.28064 1.77543 6.58134 1.77584C6.76053 1.77608 6.93971 1.77611 7.1189 1.7756C7.28743 1.77514 7.45594 1.77546 7.62447 1.77636C7.68602 1.77657 7.74757 1.77651 7.80912 1.77616C8.31012 1.7736 8.75023 1.85102 9.14056 2.18752C9.34765 2.40439 9.52427 2.64313 9.69965 2.88576C9.74745 2.95162 9.79531 3.01744 9.84323 3.08321C9.86399 3.1119 9.88476 3.1406 9.90615 3.17016C9.96136 3.2462 9.96136 3.2462 10.039 3.32033C10.1453 3.32802 10.2476 3.33078 10.354 3.33016C10.3869 3.33027 10.4198 3.33039 10.4538 3.33051C10.5648 3.33081 10.6759 3.33055 10.7869 3.3303C10.8663 3.33041 10.9456 3.33056 11.025 3.33073C11.1963 3.33105 11.3676 3.33113 11.5388 3.33105C11.8099 3.33094 12.0809 3.3315 12.3519 3.33218C13.1228 3.33402 13.8936 3.33495 14.6645 3.33521C15.09 3.33535 15.5154 3.33606 15.9409 3.33736C16.2101 3.33815 16.4792 3.33824 16.7484 3.33782C16.9164 3.33771 17.0844 3.33826 17.2523 3.33899C17.3299 3.3392 17.4075 3.33914 17.4852 3.33879C18.0567 3.33644 18.5118 3.37528 18.9453 3.78908C19.3091 4.17023 19.3986 4.57569 19.3948 5.09069C19.3951 5.16688 19.3951 5.16688 19.3955 5.2446C19.3962 5.38443 19.3959 5.52425 19.3954 5.66408C19.395 5.81533 19.3956 5.96658 19.396 6.11782C19.3967 6.41366 19.3965 6.7095 19.3961 7.00534C19.3957 7.24587 19.3957 7.48641 19.3959 7.72694C19.3959 7.76123 19.3959 7.79552 19.3959 7.83086C19.396 7.90053 19.396 7.97021 19.3961 8.03988C19.3965 8.69253 19.396 9.34518 19.3952 9.99783C19.3945 10.5573 19.3946 11.1167 19.3953 11.6762C19.3961 12.3266 19.3965 12.977 19.396 13.6274C19.3959 13.6968 19.3959 13.7662 19.3959 13.8356C19.3958 13.8868 19.3958 13.8868 19.3958 13.9391C19.3956 14.1792 19.3959 14.4193 19.3962 14.6594C19.3967 14.9522 19.3966 15.245 19.3957 15.5378C19.3953 15.6871 19.3952 15.8364 19.3957 15.9856C19.3962 16.1477 19.3956 16.3098 19.3948 16.4718C19.3953 16.542 19.3953 16.542 19.3958 16.6136C19.3916 17.0734 19.2651 17.4384 18.9453 17.7735C18.5181 18.1812 18.0591 18.2263 17.4953 18.223C17.4279 18.2232 17.3605 18.2234 17.2931 18.2237C17.1087 18.2244 16.9244 18.2241 16.74 18.2236C16.5408 18.2232 16.3417 18.2238 16.1425 18.2242C15.7526 18.2249 15.3628 18.2247 14.973 18.2243C14.6561 18.2239 14.3392 18.2239 14.0223 18.2241C13.9772 18.2241 13.932 18.2241 13.8855 18.2241C13.7938 18.2242 13.7021 18.2242 13.6105 18.2243C12.751 18.2247 11.8916 18.2242 11.0322 18.2234C10.2951 18.2227 9.55794 18.2228 8.82082 18.2235C7.96442 18.2243 7.10803 18.2247 6.25163 18.2242C6.16028 18.2241 6.06893 18.2241 5.97757 18.2241C5.91015 18.224 5.91015 18.224 5.84137 18.224C5.52494 18.2238 5.20851 18.2241 4.89208 18.2244C4.50635 18.2249 4.12062 18.2248 3.7349 18.2239C3.53817 18.2235 3.34144 18.2234 3.14471 18.2239C2.96448 18.2243 2.78426 18.2241 2.60402 18.2232C2.53897 18.2231 2.47391 18.2232 2.40886 18.2235C1.87771 18.2264 1.45231 18.1531 1.05463 17.7735C0.672414 17.3731 0.60141 16.9507 0.605098 16.4125C0.604918 16.3548 0.60467 16.297 0.60436 16.2393C0.603711 16.0816 0.604028 15.924 0.604514 15.7663C0.604868 15.5959 0.604321 15.4255 0.603892 15.2551C0.603198 14.9217 0.603347 14.5882 0.6038 14.2548C0.604153 13.9837 0.604201 13.7126 0.604031 13.4416C0.604007 13.4029 0.603983 13.3643 0.603958 13.3245C0.603908 13.246 0.603858 13.1675 0.603806 13.0891C0.603361 12.3537 0.603872 11.6183 0.604712 10.883C0.605411 10.2524 0.605289 9.62193 0.604569 8.99141C0.603732 8.25862 0.603404 7.52583 0.603883 6.79304C0.603933 6.71485 0.603982 6.63666 0.604031 6.55847C0.604055 6.52001 0.604079 6.48154 0.604104 6.44191C0.604238 6.17126 0.604011 5.90062 0.603643 5.62998C0.603204 5.3 0.603325 4.97003 0.604156 4.64006C0.604566 4.47181 0.604729 4.30357 0.604211 4.13531C0.603743 3.9811 0.604005 3.8269 0.604832 3.67269C0.605006 3.6171 0.60492 3.56151 0.604539 3.50592C0.601325 2.99758 0.697421 2.60076 1.05463 2.22658C1.47276 1.82742 1.91992 1.77353 2.47667 1.77667Z" fill="#30BEE4"/>
<path d="M2.20853 2.56765C2.23412 2.56747 2.25972 2.56729 2.28609 2.56711C2.37179 2.56662 2.45748 2.56668 2.54318 2.56675C2.60465 2.56651 2.66613 2.56625 2.72761 2.56595C2.8946 2.56526 3.06159 2.56508 3.22858 2.56503C3.33296 2.56497 3.43734 2.56481 3.54173 2.5646C3.90604 2.56388 4.27036 2.56356 4.63468 2.56362C4.97399 2.56367 5.3133 2.56284 5.65261 2.56161C5.94412 2.56058 6.23562 2.56017 6.52713 2.56022C6.70115 2.56024 6.87516 2.56002 7.04917 2.55919C7.21295 2.55843 7.37671 2.55843 7.54049 2.55899C7.60045 2.55907 7.66042 2.55889 7.72038 2.55842C8.07572 2.55579 8.35509 2.5603 8.63536 2.80475C8.66429 2.84044 8.66429 2.84044 8.6938 2.87686C8.72711 2.91763 8.72711 2.91763 8.76109 2.95922C8.90165 3.14308 9.03661 3.33067 9.16988 3.51987C9.36923 3.79665 9.54579 4.00866 9.88277 4.10153C9.9956 4.10866 10.1046 4.11203 10.2173 4.11136C10.267 4.11153 10.267 4.11153 10.3178 4.11171C10.4286 4.11201 10.5394 4.11176 10.6503 4.11151C10.7298 4.11162 10.8094 4.11176 10.889 4.11194C11.0602 4.11225 11.2315 4.11234 11.4027 4.11225C11.6736 4.11214 11.9444 4.1127 12.2153 4.11338C12.9854 4.11522 13.7555 4.11616 14.5257 4.11641C14.9511 4.11656 15.3766 4.11726 15.802 4.11856C16.0712 4.11935 16.3403 4.11944 16.6095 4.11902C16.7771 4.11892 16.9446 4.11947 17.1122 4.12019C17.1898 4.1204 17.2674 4.12034 17.345 4.12C17.4511 4.11956 17.5572 4.12009 17.6633 4.12085C17.6939 4.12049 17.7244 4.12014 17.7559 4.11977C18.0081 4.12327 18.2204 4.19643 18.4007 4.37772C18.4185 4.4042 18.4362 4.43069 18.4545 4.45798C18.473 4.48467 18.4915 4.51135 18.5105 4.53885C18.5814 4.65216 18.5985 4.71776 18.5981 4.85053C18.5981 4.88415 18.5981 4.91777 18.5981 4.95242C18.5979 4.98875 18.5977 5.02509 18.5975 5.06253C18.5974 5.11829 18.5974 5.11829 18.5974 5.17517C18.5971 5.29418 18.5966 5.41319 18.5961 5.5322C18.596 5.61276 18.5958 5.69333 18.5956 5.7739C18.5952 5.97165 18.5945 6.1694 18.5937 6.36716C18.5156 6.24997 18.5156 6.24997 18.4448 6.11569C18.3427 5.93852 18.2367 5.84533 18.0406 5.77774C17.7721 5.71478 17.4925 5.73127 17.2184 5.73197C17.1534 5.73186 17.0884 5.7317 17.0235 5.73152C16.8453 5.73112 16.6671 5.7312 16.4889 5.73137C16.2966 5.73147 16.1043 5.73112 15.912 5.73082C15.5354 5.73033 15.1589 5.73026 14.7823 5.73035C14.4762 5.73042 14.1702 5.73035 13.8641 5.73018C13.8206 5.73016 13.777 5.73014 13.7321 5.73011C13.6437 5.73006 13.5552 5.73002 13.4667 5.72997C12.6369 5.72954 11.8072 5.72963 10.9774 5.72987C10.2182 5.73007 9.45903 5.72963 8.69982 5.72889C7.92028 5.72813 7.14074 5.72781 6.36119 5.72795C5.92353 5.72803 5.48587 5.72793 5.04821 5.72738C4.67569 5.72691 4.30316 5.72686 3.93064 5.72733C3.74057 5.72756 3.5505 5.7276 3.36044 5.72714C3.18642 5.72671 3.01242 5.72683 2.8384 5.72738C2.77548 5.72749 2.71255 5.72739 2.64962 5.72708C2.14449 5.71783 2.14449 5.71783 1.7007 5.93503C1.67603 5.96162 1.65135 5.9882 1.62593 6.0156C1.60066 6.04218 1.57538 6.06877 1.54933 6.09616C1.47826 6.17582 1.47826 6.17582 1.40621 6.28903C1.40167 5.88189 1.39821 5.47476 1.39609 5.0676C1.39507 4.87851 1.39369 4.68945 1.39147 4.50038C1.38934 4.31776 1.38818 4.13517 1.38768 3.95254C1.38732 3.88302 1.38661 3.8135 1.38556 3.74398C1.37571 3.06942 1.37571 3.06942 1.60152 2.81247C1.79832 2.63007 1.94043 2.56841 2.20853 2.56765Z" fill="#0991B3"/>
<path d="M1.40621 15.8594C7.07809 15.8594 12.75 15.8594 18.5937 15.8594C18.5937 16.9888 18.5937 16.9888 18.3252 17.2632C18.1171 17.4005 17.9383 17.4316 17.6912 17.4319C17.6641 17.4321 17.6369 17.4322 17.609 17.4323C17.518 17.4327 17.4271 17.4325 17.3361 17.4323C17.2702 17.4325 17.2043 17.4326 17.1385 17.4329C16.9574 17.4333 16.7764 17.4333 16.5954 17.4332C16.4001 17.4332 16.2049 17.4336 16.0097 17.434C15.6272 17.4347 15.2447 17.4349 14.8622 17.4349C14.5514 17.435 14.2405 17.4351 13.9296 17.4354C13.0485 17.4361 12.1674 17.4364 11.2862 17.4364C11.215 17.4364 11.215 17.4364 11.1423 17.4364C11.0947 17.4363 11.0471 17.4363 10.9981 17.4363C10.227 17.4363 9.45597 17.4371 8.68488 17.4382C7.89334 17.4393 7.10179 17.4398 6.31024 17.4398C5.86577 17.4397 5.42129 17.4399 4.97682 17.4408C4.59843 17.4415 4.22005 17.4417 3.84166 17.4411C3.64858 17.4409 3.45551 17.4409 3.26244 17.4416C3.08567 17.4422 2.90892 17.4421 2.73216 17.4414C2.66823 17.4413 2.6043 17.4414 2.54037 17.4418C1.87648 17.446 1.87648 17.446 1.62099 17.2119C1.27396 16.8332 1.40621 16.3554 1.40621 15.8594Z" fill="#03A2C8"/>
<path d="M2.20854 2.56765C2.23413 2.56747 2.25973 2.56729 2.2861 2.56711C2.3718 2.56662 2.45749 2.56668 2.54319 2.56675C2.60466 2.56651 2.66614 2.56625 2.72762 2.56595C2.89461 2.56526 3.0616 2.56508 3.22859 2.56503C3.33297 2.56497 3.43735 2.56481 3.54174 2.5646C3.90606 2.56388 4.27037 2.56356 4.63469 2.56362C4.97401 2.56367 5.31331 2.56284 5.65262 2.56161C5.94413 2.56058 6.23563 2.56017 6.52714 2.56022C6.70116 2.56024 6.87517 2.56002 7.04918 2.55919C7.21296 2.55843 7.37672 2.55843 7.5405 2.55899C7.60046 2.55907 7.66043 2.55889 7.72039 2.55842C8.07574 2.55579 8.3551 2.5603 8.63537 2.80475C8.6643 2.84044 8.6643 2.84044 8.69381 2.87686C8.72712 2.91763 8.72712 2.91763 8.76111 2.95922C8.90166 3.14308 9.03662 3.33067 9.16989 3.51987C9.36925 3.79665 9.5458 4.00866 9.88278 4.10153C9.99561 4.10866 10.1046 4.11203 10.2173 4.11136C10.2671 4.11153 10.2671 4.11153 10.3178 4.11171C10.4286 4.11201 10.5394 4.11176 10.6503 4.11151C10.7299 4.11162 10.8094 4.11176 10.889 4.11194C11.0602 4.11225 11.2315 4.11234 11.4027 4.11225C11.6736 4.11214 11.9444 4.1127 12.2153 4.11338C12.9854 4.11522 13.7556 4.11616 14.5257 4.11641C14.9511 4.11656 15.3766 4.11726 15.802 4.11856C16.0712 4.11935 16.3403 4.11944 16.6095 4.11902C16.7771 4.11892 16.9446 4.11947 17.1122 4.12019C17.1898 4.1204 17.2674 4.12034 17.345 4.12C17.4511 4.11956 17.5572 4.12009 17.6633 4.12085C17.6939 4.12049 17.7244 4.12014 17.7559 4.11977C18.0081 4.12327 18.2204 4.19643 18.4007 4.37772C18.4185 4.4042 18.4362 4.43069 18.4546 4.45798C18.473 4.48467 18.4915 4.51135 18.5106 4.53885C18.6104 4.69841 18.5981 4.84101 18.5962 5.02438C18.596 5.0557 18.5958 5.08702 18.5956 5.11929C18.5952 5.19671 18.5945 5.27412 18.5937 5.35153C18.5449 5.25424 18.497 5.15664 18.4497 5.05856C18.34 4.86646 18.1753 4.7954 17.9687 4.72653C17.8612 4.7229 17.7548 4.72151 17.6473 4.72193C17.6142 4.7219 17.581 4.72187 17.5468 4.72185C17.4353 4.72179 17.3237 4.72202 17.2122 4.72223C17.1324 4.72224 17.0525 4.72223 16.9727 4.7222C16.8006 4.72216 16.6285 4.72221 16.4563 4.72233C16.184 4.72247 15.9116 4.72212 15.6393 4.72164C15.5934 4.72156 15.5474 4.72148 15.5001 4.7214C15.4061 4.72124 15.3121 4.72107 15.2181 4.72091C14.584 4.71981 13.9499 4.71902 13.3158 4.71969C12.8882 4.72015 12.4606 4.71977 12.033 4.71844C11.8068 4.71777 11.5806 4.71753 11.3543 4.71829C11.1413 4.719 10.9284 4.71863 10.7154 4.71742C10.6374 4.71717 10.5593 4.71732 10.4813 4.71791C9.70788 4.72326 9.70788 4.72326 9.41403 4.4531C9.31187 4.34461 9.22266 4.23225 9.13571 4.1113C9.08877 4.04874 9.04182 3.98617 8.99487 3.92362C8.95226 3.86576 8.90968 3.80789 8.86715 3.74997C8.64558 3.45091 8.47285 3.22429 8.0859 3.16403C8.00321 3.16039 7.92041 3.15877 7.83763 3.15855C7.78752 3.15832 7.73742 3.1581 7.68579 3.15787C7.63055 3.15782 7.57531 3.15778 7.52006 3.15774C7.46166 3.15756 7.40325 3.15736 7.34485 3.15715C7.18642 3.15664 7.02798 3.15639 6.86955 3.15621C6.77049 3.1561 6.67142 3.15594 6.57236 3.15576C6.26218 3.15523 5.95199 3.15485 5.64181 3.1547C5.28418 3.15453 4.92656 3.15384 4.56893 3.15271C4.29218 3.15186 4.01544 3.15147 3.73869 3.15142C3.57354 3.15138 3.4084 3.15115 3.24325 3.15045C3.08784 3.1498 2.93244 3.14972 2.77703 3.15006C2.72015 3.15009 2.66328 3.14992 2.6064 3.14954C2.13183 3.14618 2.13183 3.14618 1.70926 3.34287C1.55741 3.49835 1.48475 3.61321 1.44528 3.8281C1.43239 3.8281 1.4195 3.8281 1.40622 3.8281C1.3705 3.08514 1.3705 3.08514 1.54568 2.8674C1.75799 2.65857 1.9092 2.5685 2.20854 2.56765Z" fill="#2CBAE1"/>
<path d="M2.3879 5.6932C2.41469 5.69308 2.44148 5.69295 2.46908 5.69282C2.55857 5.6925 2.64805 5.69273 2.73754 5.69296C2.80246 5.69284 2.86737 5.69269 2.93229 5.69251C3.11048 5.6921 3.28867 5.69219 3.46686 5.69236C3.65911 5.69245 3.85137 5.6921 4.04362 5.69181C4.42019 5.69131 4.79676 5.69124 5.17333 5.69133C5.4794 5.6914 5.78547 5.69133 6.09154 5.69117C6.15686 5.69113 6.15686 5.69113 6.22351 5.6911C6.31198 5.69105 6.40046 5.691 6.48893 5.69095C7.31876 5.69053 8.14858 5.69061 8.9784 5.69085C9.73759 5.69105 10.4968 5.69061 11.256 5.68987C12.0355 5.68911 12.815 5.68879 13.5944 5.68894C14.0321 5.68901 14.4697 5.68892 14.9074 5.68836C15.2799 5.6879 15.6525 5.68784 16.0251 5.68832C16.2151 5.68855 16.4052 5.68859 16.5953 5.68812C16.7694 5.6877 16.9434 5.68782 17.1175 5.68837C17.1804 5.68847 17.2433 5.68838 17.3062 5.68806C17.6848 5.68631 18.0068 5.69441 18.3325 5.90334C18.5065 6.08944 18.6026 6.2881 18.6035 6.54543C18.6003 6.58974 18.5971 6.63405 18.5938 6.6797C18.5529 6.61846 18.5122 6.55716 18.4721 6.49538C18.3585 6.32659 18.2574 6.21504 18.0577 6.14994C17.9377 6.12686 17.8231 6.12776 17.7009 6.12759C17.6603 6.12745 17.6603 6.12745 17.6189 6.12731C17.5278 6.12705 17.4367 6.12706 17.3455 6.12708C17.2797 6.12695 17.2139 6.12681 17.1481 6.12665C16.9669 6.12625 16.7857 6.12611 16.6045 6.12601C16.4092 6.12585 16.2139 6.12548 16.0186 6.12514C15.5469 6.12437 15.0751 6.12397 14.6033 6.12362C14.3813 6.12345 14.1592 6.12324 13.9371 6.12304C13.199 6.12237 12.4609 6.12181 11.7229 6.12153C11.5313 6.12145 11.3398 6.12138 11.1482 6.1213C11.1006 6.12128 11.053 6.12126 11.0039 6.12124C10.2323 6.12092 9.46076 6.11993 8.68916 6.11866C7.89726 6.11737 7.10537 6.11666 6.31347 6.11654C5.86873 6.11645 5.42399 6.11611 4.97926 6.11512C4.60058 6.11427 4.22191 6.11395 3.84323 6.11433C3.65 6.11451 3.45677 6.11443 3.26354 6.11368C3.08663 6.11299 2.90973 6.11303 2.73281 6.11363C2.66883 6.11373 2.60485 6.11356 2.54087 6.11309C2.08704 6.10781 2.08704 6.10781 1.6797 6.28908C1.60852 6.35528 1.60852 6.35528 1.56739 6.42824C1.55299 6.45085 1.53859 6.47346 1.52375 6.49675C1.51076 6.51845 1.49777 6.54016 1.48439 6.56252C1.4586 6.60119 1.43282 6.63986 1.40626 6.6797C1.39121 6.39256 1.39886 6.23772 1.5912 6.01549C1.82838 5.75854 2.03607 5.69345 2.3879 5.6932Z" fill="#2DBBE2"/>
<path d="M11.4844 8.39841C11.734 8.5434 11.9482 8.69772 12.1484 8.90622C12.091 9.06333 12.0156 9.19944 11.9284 9.34201C11.9145 9.36481 11.9006 9.38761 11.8863 9.41109C11.842 9.48378 11.7975 9.55633 11.7529 9.62888C11.7239 9.67638 11.6949 9.72388 11.666 9.7714C11.6084 9.86575 11.5506 9.95998 11.4927 10.0541C11.4339 10.15 11.3756 10.2461 11.3176 10.3425C11.3034 10.366 11.2892 10.3895 11.2746 10.4137C11.2355 10.4784 11.1965 10.5433 11.1576 10.6081C11.0938 10.7031 11.0938 10.7031 11.0156 10.7422C11.0025 10.7197 10.9894 10.6972 10.976 10.6741C10.8211 10.4083 10.6661 10.1426 10.5109 9.87693C10.4826 9.8284 10.4543 9.77986 10.4259 9.73132C10.3389 9.58226 10.2518 9.43323 10.1647 9.28425C10.1367 9.23648 10.1088 9.1887 10.0809 9.1409C9.90116 8.83265 9.90116 8.83265 9.71539 8.52802C9.70086 8.50471 9.68633 8.48141 9.67136 8.4574C9.63088 8.39275 9.59014 8.32826 9.54939 8.26378C9.49219 8.16404 9.49219 8.16404 9.49219 8.08591C10.1094 7.88018 10.9241 8.12381 11.4844 8.39841Z" fill="#006780"/>
<path d="M9.84375 12.3047C10.8492 12.3047 11.8547 12.3047 12.8906 12.3047C12.6185 13.1211 12.0304 13.6838 11.2724 14.0649C11.1252 14.1186 10.9737 14.1485 10.8203 14.1797C10.3968 13.4177 10.3968 13.4177 10.2141 13.0426C10.1299 12.8782 10.037 12.7191 9.9429 12.5602C9.84375 12.391 9.84375 12.391 9.84375 12.3047Z" fill="#006780"/>
<path d="M8.90625 11.6406C8.93203 11.6406 8.95781 11.6406 8.98438 11.6406C8.99849 11.6669 9.0126 11.6932 9.02714 11.7202C9.27558 12.1825 9.52421 12.6447 9.77539 13.1055C9.79425 13.1401 9.81311 13.1747 9.83253 13.2104C9.92606 13.3816 10.0204 13.5524 10.116 13.7225C10.1343 13.7552 10.1526 13.7878 10.1715 13.8215C10.206 13.883 10.2407 13.9444 10.2756 14.0057C10.3906 14.2102 10.3906 14.2102 10.3906 14.2969C10.2547 14.2992 10.1188 14.3005 9.98291 14.3018C9.94487 14.3024 9.90683 14.3031 9.86763 14.3037C9.0766 14.309 8.4519 13.9617 7.85156 13.4766C7.87286 13.2964 7.95192 13.1686 8.04932 13.02C8.08443 12.9654 8.11947 12.9107 8.15445 12.856C8.18407 12.8097 8.18407 12.8097 8.21428 12.7625C8.29211 12.639 8.3679 12.5143 8.44345 12.3894C8.47175 12.3427 8.50005 12.2961 8.52836 12.2495C8.57088 12.1794 8.61331 12.1093 8.65548 12.0391C8.69528 11.9728 8.73545 11.9068 8.77563 11.8408C8.81057 11.783 8.81057 11.783 8.84621 11.7239C8.86602 11.6964 8.88584 11.669 8.90625 11.6406Z" fill="#006881"/>
<path d="M1.40625 15.6641C7.07812 15.6641 12.75 15.6641 18.5938 15.6641C18.5938 15.7285 18.5938 15.793 18.5938 15.8594C12.9219 15.8594 7.25 15.8594 1.40625 15.8594C1.40625 15.7949 1.40625 15.7305 1.40625 15.6641Z" fill="#6CE3FF"/>
<path d="M1.40625 15.4688C7.07812 15.4688 12.75 15.4688 18.5938 15.4688C18.5938 15.5332 18.5938 15.5977 18.5938 15.6641C12.9219 15.6641 7.25 15.6641 1.40625 15.6641C1.40625 15.5996 1.40625 15.5352 1.40625 15.4688Z" fill="#006780"/>
<path d="M8.98438 8.20312C9.07965 8.29085 9.14265 8.3805 9.20761 8.49228C9.23785 8.54392 9.23785 8.54392 9.26869 8.59661C9.29008 8.63353 9.31146 8.67046 9.3335 8.7085C9.37873 8.78598 9.424 8.86344 9.4693 8.94089C9.50391 9.00013 9.50391 9.00013 9.53922 9.06057C9.60764 9.17675 9.67706 9.29224 9.74701 9.4075C9.76861 9.44313 9.79022 9.47876 9.81248 9.51547C9.85393 9.58367 9.8955 9.65179 9.9372 9.71984C9.95576 9.75046 9.97432 9.78108 9.99344 9.81262C10.0098 9.83947 10.0263 9.86632 10.0432 9.89399C10.0781 9.96094 10.0781 9.96094 10.0781 10.0391C9.09844 10.0391 8.11875 10.0391 7.10938 10.0391C7.22671 9.4524 7.72168 8.92421 8.20312 8.59375C8.45378 8.43271 8.70087 8.29581 8.98438 8.20312Z" fill="#006780"/>
<path d="M6.95309 10.5078C7.64919 10.5078 8.34528 10.5078 9.06247 10.5078C8.99584 10.6744 8.91965 10.8209 8.82809 10.9737C8.81278 10.9995 8.79746 11.0253 8.78168 11.0518C8.7322 11.1351 8.6825 11.2182 8.63278 11.3013C8.59871 11.3584 8.56464 11.4156 8.53057 11.4727C8.33498 11.8005 8.13753 12.1268 7.93316 12.4492C7.84457 12.5891 7.75751 12.7299 7.67087 12.8711C7.64539 12.9126 7.61991 12.9541 7.59366 12.9968C7.57563 13.0262 7.5576 13.0556 7.53903 13.0859C7.39316 12.958 7.31064 12.8111 7.22653 12.6392C7.21293 12.6116 7.19933 12.584 7.18532 12.5556C6.95872 12.0841 6.86806 11.6278 6.86764 11.1084C6.86716 11.0764 6.86669 11.0443 6.86619 11.0114C6.86612 10.98 6.86604 10.9487 6.86596 10.9164C6.8658 10.8886 6.86564 10.8607 6.86548 10.832C6.87497 10.7422 6.87497 10.7422 6.95309 10.5078Z" fill="#006780"/>
<path d="M12.4609 9.29688C12.8741 9.67268 13.0951 10.3014 13.1323 10.8496C13.1462 11.1948 13.1568 11.5061 13.0469 11.8359C12.3508 11.8359 11.6547 11.8359 10.9375 11.8359C10.9952 11.6917 11.049 11.5771 11.1281 11.4464C11.1509 11.4085 11.1737 11.3707 11.1971 11.3317C11.2218 11.291 11.2465 11.2504 11.272 11.2085C11.2976 11.1661 11.3232 11.1238 11.3495 11.0801C11.4045 10.9891 11.4596 10.8982 11.5147 10.8074C11.5887 10.6853 11.6624 10.5631 11.7361 10.4409C11.7955 10.3422 11.8551 10.2436 11.9146 10.1451C11.9433 10.0976 11.9719 10.0502 12.0005 10.0027C12.1461 9.76101 12.2923 9.52325 12.4609 9.29688Z" fill="#006780"/>
<path d="M2.25531 6.08861C2.28233 6.08853 2.30936 6.08845 2.33721 6.08837C2.42845 6.08814 2.51968 6.0882 2.61092 6.08826C2.67673 6.08816 2.74254 6.08804 2.80834 6.0879C2.98971 6.08759 3.17107 6.08752 3.35244 6.08749C3.54784 6.08742 3.74323 6.08712 3.93863 6.08686C4.36614 6.08633 4.79364 6.08609 5.22115 6.08592C5.48797 6.08581 5.75479 6.08565 6.02161 6.08547C6.76003 6.085 7.49844 6.08459 8.23685 6.08446C8.28413 6.08445 8.33141 6.08445 8.38013 6.08444C8.42752 6.08443 8.47492 6.08442 8.52375 6.08441C8.61979 6.08439 8.71584 6.08438 8.81188 6.08436C8.85953 6.08435 8.90717 6.08434 8.95625 6.08433C9.72838 6.08418 10.5005 6.0835 11.2726 6.08259C12.0649 6.08166 12.8572 6.08117 13.6495 6.08113C14.0945 6.08109 14.5396 6.08087 14.9846 6.08016C15.3635 6.07956 15.7424 6.07936 16.1213 6.07968C16.3147 6.07983 16.5081 6.07979 16.7015 6.07925C16.8785 6.07875 17.0555 6.0788 17.2325 6.07927C17.2966 6.07935 17.3606 6.07923 17.4247 6.07889C17.5118 6.07845 17.5988 6.07874 17.6859 6.07921C17.7342 6.07919 17.7826 6.07917 17.8324 6.07914C18.068 6.10439 18.2686 6.19828 18.4375 6.36718C18.5549 6.54639 18.6155 6.69592 18.5937 6.91405C18.584 6.89311 18.5744 6.87216 18.5644 6.85058C18.4398 6.61381 18.3124 6.42679 18.0577 6.32447C17.9173 6.28564 17.7994 6.27922 17.6539 6.27911C17.6269 6.27899 17.6 6.27886 17.5722 6.27873C17.4818 6.27841 17.3915 6.27864 17.3012 6.27887C17.2358 6.27875 17.1704 6.2786 17.1049 6.27842C16.9252 6.27802 16.7454 6.2781 16.5656 6.27827C16.3718 6.27837 16.1779 6.27801 15.984 6.27772C15.6042 6.27722 15.2244 6.27715 14.8446 6.27724C14.5359 6.27731 14.2273 6.27725 13.9186 6.27708C13.8747 6.27706 13.8308 6.27703 13.7856 6.27701C13.6964 6.27696 13.6072 6.27691 13.518 6.27687C12.6813 6.27644 11.8447 6.27653 11.008 6.27676C10.2423 6.27697 9.47666 6.27653 8.71098 6.27578C7.92504 6.27503 7.1391 6.2747 6.35315 6.27485C5.9118 6.27493 5.47045 6.27483 5.0291 6.27428C4.6534 6.27381 4.2777 6.27376 3.902 6.27423C3.71028 6.27446 3.51856 6.2745 3.32683 6.27403C3.15135 6.27361 2.97587 6.27373 2.80039 6.27428C2.73688 6.27438 2.67337 6.27429 2.60986 6.27398C2.52354 6.27358 2.43726 6.27391 2.35094 6.27442C2.27902 6.27441 2.27902 6.27441 2.20565 6.27441C1.94358 6.30276 1.75974 6.41559 1.57985 6.60476C1.49524 6.71703 1.4705 6.81573 1.44526 6.95312C1.43237 6.95312 1.41948 6.95312 1.4062 6.95312C1.38697 6.72235 1.42419 6.55638 1.56245 6.36718C1.78337 6.16182 1.95244 6.08891 2.25531 6.08861Z" fill="#6BE2FE"/>
<path d="M2.59644 2.94855C2.65755 2.94834 2.71867 2.94806 2.77978 2.94772C2.94507 2.94701 3.11035 2.94728 3.27564 2.94778C3.44899 2.94818 3.62235 2.94781 3.7957 2.94756C4.08676 2.94728 4.37782 2.94765 4.66888 2.9484C5.00492 2.94925 5.34094 2.94897 5.67697 2.94811C5.966 2.9474 6.25501 2.9473 6.54404 2.94771C6.71644 2.94795 6.88883 2.94799 7.06122 2.94747C7.22334 2.94702 7.38544 2.94733 7.54755 2.94824C7.60688 2.94844 7.66621 2.94838 7.72554 2.94804C8.03627 2.94639 8.2888 2.94795 8.55469 3.12502C8.65524 3.22466 8.65524 3.22466 8.73779 3.33254C8.7669 3.3702 8.796 3.40787 8.82599 3.44667C8.85248 3.48232 8.87896 3.51797 8.90625 3.5547C8.9279 3.5831 8.94955 3.6115 8.97186 3.64076C9.10156 3.81516 9.10156 3.81516 9.10156 3.90627C9.12734 3.90627 9.15312 3.90627 9.17969 3.90627C9.19258 3.95783 9.20547 4.00939 9.21875 4.06252C9.24453 4.06252 9.27031 4.06252 9.29688 4.06252C9.41406 4.19773 9.41406 4.19773 9.41406 4.29689C9.71414 4.42273 9.97801 4.50996 10.3051 4.50673C10.3543 4.50695 10.3543 4.50695 10.4045 4.50718C10.5133 4.50754 10.6221 4.50708 10.731 4.50661C10.8094 4.50671 10.8879 4.50686 10.9663 4.50706C11.1347 4.50738 11.3031 4.50735 11.4716 4.50705C11.738 4.5066 12.0044 4.50708 12.2709 4.5077C12.9325 4.50911 13.5941 4.50936 14.2557 4.50926C14.7702 4.50919 15.2847 4.50947 15.7993 4.51082C16.064 4.51148 16.3288 4.51141 16.5935 4.51079C16.7583 4.51056 16.923 4.51098 17.0878 4.51158C17.1641 4.51173 17.2403 4.51161 17.3166 4.5112C17.4209 4.51067 17.5252 4.51111 17.6295 4.51178C17.6595 4.5114 17.6895 4.51102 17.7205 4.51062C17.9706 4.51394 18.1703 4.59344 18.3617 4.75572C18.4676 4.88567 18.5441 4.98207 18.5547 5.15627C18.5221 5.11276 18.5221 5.11276 18.4888 5.06838C18.3352 4.88572 18.1995 4.78825 17.9688 4.72658C17.8556 4.7196 17.7463 4.71641 17.6333 4.71728C17.6 4.71722 17.5667 4.71716 17.5325 4.71709C17.4213 4.71698 17.3101 4.71741 17.1989 4.71784C17.1191 4.71786 17.0392 4.71785 16.9594 4.7178C16.7876 4.71774 16.6158 4.71792 16.444 4.71825C16.1721 4.71873 15.9003 4.71846 15.6284 4.71804C14.8554 4.71692 14.0824 4.71644 13.3093 4.7176C12.8823 4.71823 12.4553 4.71803 12.0283 4.7169C11.8025 4.71634 11.5766 4.71622 11.3508 4.71714C11.1383 4.71801 10.9258 4.71779 10.7133 4.71675C10.6354 4.71657 10.5576 4.71678 10.4798 4.71743C9.70821 4.72342 9.70821 4.72342 9.41406 4.45314C9.3119 4.34466 9.22269 4.23229 9.13574 4.11134C9.0888 4.04878 9.04185 3.98622 8.9949 3.92366C8.95229 3.86581 8.90971 3.80793 8.86719 3.75002C8.64562 3.45096 8.47288 3.22434 8.08594 3.16408C8.00324 3.16043 7.92044 3.15881 7.83766 3.15859C7.78756 3.15837 7.73745 3.15815 7.68583 3.15792C7.63058 3.15787 7.57534 3.15782 7.52009 3.15778C7.46169 3.1576 7.40329 3.15741 7.34488 3.1572C7.18645 3.15669 7.02802 3.15643 6.86958 3.15626C6.77052 3.15614 6.67146 3.15598 6.57239 3.15581C6.26221 3.15528 5.95203 3.1549 5.64184 3.15475C5.28421 3.15457 4.92659 3.15389 4.56896 3.15275C4.29222 3.15191 4.01547 3.15152 3.73873 3.15146C3.57358 3.15142 3.40843 3.15119 3.24328 3.15049C3.08787 3.14985 2.93247 3.14977 2.77706 3.15011C2.72019 3.15014 2.66331 3.14997 2.60644 3.14958C2.12014 3.14335 2.12014 3.14335 1.698 3.36107C1.67262 3.38871 1.64724 3.41636 1.62109 3.44484C1.59491 3.47279 1.56873 3.50073 1.54175 3.52953C1.52281 3.55073 1.50388 3.57193 1.48438 3.59377C1.45889 3.52541 1.45889 3.52541 1.44531 3.43752C1.48178 3.35939 1.48178 3.35939 1.54053 3.28127C1.55901 3.25549 1.57749 3.2297 1.59653 3.20314C1.89015 2.9273 2.21847 2.94634 2.59644 2.94855Z" fill="#69E1FD"/>
</svg>
