<svg width="18" height="18" viewBox="0 0 18 18" fill="none" xmlns="http://www.w3.org/2000/svg">
<path d="M6.1898 1.6781C6.21775 1.67794 6.2457 1.67779 6.2745 1.67762C6.36785 1.67718 6.46119 1.67723 6.55454 1.67729C6.6216 1.67708 6.68866 1.67684 6.75571 1.67658C6.93767 1.67596 7.11963 1.67579 7.30159 1.67575C7.41533 1.6757 7.52908 1.67555 7.64282 1.67536C8.03982 1.67471 8.43681 1.67442 8.83381 1.67448C9.20357 1.67452 9.57333 1.67378 9.9431 1.67267C10.2608 1.67175 10.5785 1.67137 10.8962 1.67142C11.0859 1.67143 11.2755 1.67123 11.4652 1.67049C11.6436 1.66981 11.822 1.6698 12.0004 1.67031C12.0658 1.67039 12.1311 1.67022 12.1964 1.6698C12.6948 1.66676 12.9943 1.71992 13.3594 2.07422C13.3821 2.09591 13.4048 2.1176 13.4281 2.13994C13.5007 2.21024 13.5725 2.28132 13.6441 2.35265C13.671 2.37932 13.6979 2.406 13.7256 2.43348C13.8137 2.52086 13.9016 2.60837 13.9895 2.69591C14.0197 2.72598 14.0499 2.75604 14.081 2.78702C14.2406 2.94589 14.4001 3.10488 14.5595 3.26395C14.7239 3.42789 14.8886 3.59142 15.0534 3.75486C15.1805 3.88103 15.3073 4.00751 15.434 4.13407C15.4946 4.1945 15.5553 4.25481 15.6161 4.315C15.7012 4.3992 15.7858 4.48384 15.8703 4.56859C15.8953 4.59317 15.9204 4.61774 15.9461 4.64305C16.1614 4.86062 16.3166 5.09579 16.3173 5.41006C16.3174 5.44569 16.3176 5.48132 16.3177 5.51803C16.3177 5.57691 16.3177 5.57691 16.3177 5.63699C16.3179 5.67861 16.318 5.72023 16.3181 5.76311C16.3184 5.87884 16.3186 5.99456 16.3187 6.11029C16.3188 6.23503 16.3192 6.35977 16.3195 6.48452C16.3202 6.78591 16.3205 7.08729 16.3208 7.38868C16.321 7.53064 16.3212 7.67259 16.3214 7.81454C16.322 8.2865 16.3225 8.75845 16.3227 9.2304C16.3228 9.35288 16.3229 9.47537 16.3229 9.59786C16.3229 9.6283 16.323 9.65875 16.323 9.69011C16.3233 10.1831 16.3242 10.676 16.3253 11.169C16.3265 11.6752 16.3271 12.1814 16.3272 12.6876C16.3273 12.9718 16.3276 13.256 16.3285 13.5402C16.3293 13.7822 16.3295 14.0243 16.3292 14.2664C16.329 14.3898 16.3291 14.5132 16.3298 14.6367C16.3304 14.7707 16.3302 14.9048 16.3297 15.0388C16.3303 15.0969 16.3303 15.0969 16.3309 15.1561C16.3281 15.4848 16.2491 15.7682 16.0209 16.0126C15.7374 16.2674 15.4542 16.323 15.0828 16.3219C15.0438 16.3221 15.0048 16.3222 14.9646 16.3224C14.834 16.3228 14.7033 16.3228 14.5726 16.3227C14.479 16.3229 14.3853 16.3232 14.2916 16.3234C14.0635 16.324 13.8355 16.3242 13.6074 16.3243C13.4219 16.3243 13.2364 16.3244 13.051 16.3247C12.5249 16.3253 11.9987 16.3256 11.4726 16.3255C11.43 16.3255 11.43 16.3255 11.3867 16.3255C11.3583 16.3255 11.3299 16.3255 11.3006 16.3255C10.8408 16.3255 10.3809 16.3262 9.92099 16.3272C9.44847 16.3282 8.97595 16.3287 8.50343 16.3286C8.23827 16.3286 7.97312 16.3288 7.70796 16.3295C7.48217 16.3302 7.25638 16.3303 7.03059 16.3298C6.91548 16.3296 6.80038 16.3297 6.68527 16.3302C6.56024 16.3308 6.43523 16.3304 6.31019 16.3299C6.27415 16.3303 6.23811 16.3306 6.20098 16.331C5.88041 16.3279 5.60021 16.2429 5.36248 16.0208C5.1638 15.7998 5.0526 15.5556 5.05569 15.2559C5.05591 15.2169 5.05614 15.1779 5.05637 15.1378C5.05726 15.0776 5.05726 15.0776 5.05816 15.0161C5.05848 14.9752 5.05879 14.9342 5.05912 14.892C5.05995 14.7913 5.0611 14.6906 5.06255 14.5898C5.04028 14.5882 5.01802 14.5865 4.99507 14.5847C4.06487 14.5044 3.17666 13.9502 2.57621 13.2506C2.20864 12.802 1.95636 12.2967 1.79302 11.7422C1.78106 11.7033 1.76909 11.6644 1.75677 11.6244C1.50913 10.6453 1.68807 9.55857 2.18441 8.68896C2.74314 7.76127 3.57325 7.16649 4.59646 6.84586C4.69702 6.82343 4.7916 6.81084 4.89393 6.80114C4.92553 6.79811 4.95712 6.79508 4.98968 6.79195C5.01372 6.78971 5.03777 6.78747 5.06255 6.78516C5.06242 6.76356 5.06229 6.74196 5.06216 6.71971C5.05905 6.19296 5.05672 5.66621 5.05527 5.13946C5.05454 4.88471 5.05356 4.62998 5.05194 4.37524C5.05054 4.15309 5.04963 3.93094 5.04932 3.70877C5.04914 3.59125 5.04864 3.47375 5.04768 3.35623C5.04666 3.2247 5.04652 3.0932 5.04659 2.96166C5.04608 2.92315 5.04558 2.88464 5.04506 2.84496C5.04681 2.51561 5.12556 2.23229 5.35424 1.98743C5.60089 1.76567 5.85934 1.67671 6.1898 1.6781Z" fill="#F0EFEF"/>
<path d="M8.07706 7.59321C8.10321 7.61659 8.12936 7.63997 8.1563 7.66407C8.18499 7.68818 8.21368 7.71229 8.24323 7.73713C8.96187 8.35469 9.48503 9.31121 9.56255 10.2656C9.5845 10.7312 9.58534 11.1859 9.45709 11.6367C9.44689 11.6732 9.44689 11.6732 9.43649 11.7105C9.27718 12.268 9.03743 12.7838 8.64849 13.2188C8.62438 13.2474 8.60027 13.2761 8.57543 13.3057C7.95716 14.0252 7.00011 14.5457 6.04693 14.625C4.84076 14.675 3.80249 14.3995 2.89385 13.5791C2.35608 13.0758 2.00016 12.4454 1.79302 11.7422C1.78106 11.7033 1.76909 11.6644 1.75677 11.6244C1.50913 10.6453 1.68807 9.55857 2.18441 8.68895C2.73497 7.77483 3.57517 7.1387 4.59948 6.84765C5.76401 6.56225 7.15214 6.79818 8.07706 7.59321Z" fill="#397BE6"/>
<path d="M5.76559 8.57811C5.8958 8.64936 5.96435 8.70047 6.04684 8.82421C6.05695 8.91241 6.05695 8.91241 6.05873 9.0189C6.05952 9.05881 6.0603 9.09871 6.06112 9.13983C6.06173 9.20459 6.06173 9.20459 6.06236 9.27066C6.06284 9.31511 6.06333 9.35955 6.06382 9.40534C6.06464 9.49953 6.06527 9.5937 6.06566 9.6879C6.06624 9.80798 6.06829 9.92799 6.07069 10.0481C6.07266 10.1632 6.07288 10.2783 6.07334 10.3935C6.07439 10.4363 6.07544 10.4791 6.07652 10.5232C6.07546 10.7301 6.06765 10.866 5.92935 11.0263C5.8875 11.0668 5.84466 11.1063 5.80075 11.1445C5.76224 11.1815 5.72378 11.2185 5.68539 11.2556C5.6478 11.2898 5.61008 11.3238 5.57223 11.3577C5.44675 11.4714 5.32298 11.5851 5.20529 11.707C5.07902 11.8342 4.96292 11.9369 4.78341 11.9751C4.62971 11.9437 4.53252 11.8586 4.42965 11.7422C4.38602 11.6113 4.37865 11.5287 4.3945 11.3906C4.48504 11.2309 4.60562 11.1037 4.74753 10.9887C4.96739 10.8086 5.16701 10.6423 5.21456 10.35C5.23243 10.1324 5.22319 9.91644 5.21188 9.69872C5.2084 9.58681 5.20573 9.47493 5.20372 9.36299C5.20224 9.29393 5.19979 9.22489 5.19623 9.15592C5.189 8.95472 5.20616 8.84244 5.34371 8.68358C5.48176 8.57165 5.59022 8.55658 5.76559 8.57811Z" fill="#F1EDED"/>
<path d="M11.3953 11.9475C11.4249 11.9473 11.4545 11.9471 11.4849 11.9469C11.583 11.9464 11.6811 11.9462 11.7791 11.946C11.8472 11.9458 11.9152 11.9456 11.9833 11.9454C12.1261 11.945 12.269 11.9448 12.4118 11.9447C12.5948 11.9445 12.7778 11.9436 12.9608 11.9426C13.1014 11.942 13.2421 11.9418 13.3827 11.9417C13.4502 11.9416 13.5176 11.9414 13.5851 11.9409C13.6795 11.9403 13.7739 11.9404 13.8684 11.9406C13.8962 11.9403 13.9241 11.9399 13.9528 11.9396C14.1656 11.9412 14.2749 11.9916 14.425 12.1377C14.5017 12.2627 14.5024 12.336 14.4844 12.4805C14.4309 12.5924 14.369 12.6821 14.2734 12.7617C14.1412 12.8058 14.017 12.8032 13.8791 12.8042C13.8497 12.8046 13.8202 12.8049 13.7899 12.8052C13.6923 12.8063 13.5948 12.8071 13.4973 12.8077C13.4639 12.8079 13.4306 12.8082 13.3962 12.8084C13.2197 12.8096 13.0432 12.8104 12.8668 12.8111C12.7208 12.8117 12.5749 12.813 12.4289 12.8147C12.2526 12.8168 12.0763 12.8179 11.8999 12.8183C11.8328 12.8186 11.7657 12.8192 11.6986 12.8202C11.6045 12.8216 11.5105 12.8216 11.4164 12.8214C11.3889 12.8221 11.3613 12.8228 11.3329 12.8235C11.1446 12.821 11.0478 12.7688 10.9098 12.6415C10.8381 12.5558 10.8275 12.4756 10.8127 12.3662C10.8332 12.191 10.9115 12.1052 11.0391 11.9883C11.1511 11.9323 11.2723 11.9476 11.3953 11.9475Z" fill="#0B4F6C"/>
<path d="M11.3953 7.44745C11.4249 7.44728 11.4545 7.4471 11.4849 7.44692C11.583 7.44641 11.6811 7.44617 11.7791 7.44598C11.8472 7.44578 11.9152 7.44557 11.9833 7.44537C12.1261 7.445 12.269 7.4448 12.4118 7.44467C12.5948 7.44448 12.7778 7.44364 12.9608 7.44263C13.1014 7.44198 13.2421 7.4418 13.3827 7.44174C13.4502 7.44164 13.5176 7.44135 13.5851 7.44089C13.6795 7.44029 13.7739 7.44036 13.8684 7.44059C13.8962 7.44026 13.9241 7.43994 13.9528 7.43961C14.1656 7.44122 14.2749 7.49162 14.425 7.63769C14.5017 7.76266 14.5024 7.83596 14.4844 7.98046C14.4309 8.09242 14.369 8.18211 14.2734 8.26171C14.1412 8.3058 14.017 8.30319 13.8791 8.30421C13.8497 8.30455 13.8202 8.3049 13.7899 8.30525C13.6923 8.3063 13.5948 8.30705 13.4973 8.30772C13.4639 8.30795 13.4306 8.30818 13.3962 8.30842C13.2197 8.30956 13.0432 8.31042 12.8668 8.31111C12.7208 8.31173 12.5749 8.31296 12.4289 8.31471C12.2526 8.31683 12.0763 8.31791 11.8999 8.31825C11.8328 8.31855 11.7657 8.31921 11.6986 8.32025C11.6045 8.32162 11.5105 8.32165 11.4164 8.32137C11.3889 8.32208 11.3613 8.32278 11.3329 8.3235C11.1446 8.32103 11.0478 8.26879 10.9098 8.14151C10.8381 8.05576 10.8275 7.97559 10.8127 7.8662C10.8332 7.69098 10.9115 7.60522 11.0391 7.48827C11.1511 7.43227 11.2723 7.44763 11.3953 7.44745Z" fill="#0B4F6C"/>
<path d="M11.9062 9.69747C11.9303 9.6973 11.9543 9.69712 11.9792 9.69694C12.059 9.69643 12.1388 9.69619 12.2186 9.69599C12.274 9.69579 12.3295 9.69559 12.3849 9.69539C12.5013 9.69502 12.6176 9.69481 12.734 9.69469C12.8829 9.6945 13.0319 9.69365 13.1808 9.69265C13.2954 9.692 13.41 9.69181 13.5246 9.69176C13.5795 9.69165 13.6344 9.69137 13.6893 9.69091C13.7662 9.69031 13.8431 9.69038 13.92 9.6906C13.9637 9.69048 14.0075 9.69035 14.0525 9.69022C14.2187 9.70882 14.3072 9.77306 14.425 9.88771C14.5017 10.0127 14.5024 10.086 14.4844 10.2305C14.4309 10.3424 14.369 10.4321 14.2734 10.5117C14.1529 10.5519 14.0579 10.5526 13.9308 10.5542C13.8948 10.5547 13.8948 10.5547 13.8581 10.5553C13.7789 10.5563 13.6996 10.5571 13.6203 10.5577C13.5796 10.5581 13.5796 10.5581 13.5381 10.5584C13.3944 10.5596 13.2508 10.5604 13.1071 10.5611C12.9884 10.5618 12.8698 10.563 12.7511 10.5647C12.6076 10.5669 12.4641 10.5679 12.3206 10.5683C12.266 10.5686 12.2115 10.5692 12.1569 10.5703C11.6771 10.5789 11.6771 10.5789 11.5156 10.4466C11.4191 10.3455 11.394 10.2553 11.3752 10.1162C11.3957 9.941 11.474 9.85524 11.6016 9.73829C11.7034 9.68737 11.7924 9.6981 11.9062 9.69747Z" fill="#0C4F6C"/>
<path d="M8.47951 5.19747C8.53671 5.19696 8.53671 5.19696 8.59508 5.19645C8.63646 5.1963 8.67784 5.19615 8.72048 5.19599C8.76288 5.19579 8.80528 5.19559 8.84897 5.19539C8.93884 5.19505 9.02871 5.19483 9.11858 5.19469C9.25608 5.19435 9.39357 5.19326 9.53106 5.19215C9.61829 5.19192 9.70551 5.19174 9.79274 5.1916C9.85449 5.19095 9.85449 5.19095 9.91749 5.19028C9.95596 5.19039 9.99443 5.1905 10.0341 5.1906C10.0678 5.19048 10.1016 5.19035 10.1363 5.19022C10.2877 5.211 10.3799 5.28299 10.4875 5.38771C10.5642 5.51268 10.5649 5.58598 10.5468 5.73048C10.4934 5.84244 10.4314 5.93213 10.3359 6.01173C10.2299 6.04706 10.1558 6.05237 10.0448 6.05422C9.98798 6.05524 9.98798 6.05524 9.92997 6.05628C9.75659 6.05831 9.58323 6.06004 9.40985 6.06113C9.31846 6.06188 9.22708 6.06308 9.13571 6.06473C9.00383 6.06708 8.87201 6.06805 8.74011 6.06872C8.69942 6.0697 8.65873 6.07068 8.6168 6.07169C8.39147 6.07111 8.25599 6.05277 8.0924 5.89162C7.99772 5.76515 7.99789 5.63591 8.01557 5.48439C8.14194 5.28764 8.24449 5.19915 8.47951 5.19747Z" fill="#0C4F6C"/>
</svg>
