<svg width="364" height="300" viewBox="0 0 364 300" fill="none" xmlns="http://www.w3.org/2000/svg">
<path d="M277.325 208.981V198.394V183.774V114.957V100.337L288.59 76.8937L344.914 32.2764C352.424 25.9746 363.689 31.2682 363.689 41.0991V254.355C363.689 264.185 352.174 269.479 344.664 263.177L277.325 208.981Z" fill="#00AC47"/>
<path d="M90.9613 0L0.0522461 90.9091H90.9613V0Z" fill="#EA4335"/>
<path d="M90.9613 90.9092H0.0522461V209.091H90.9613V90.9092Z" fill="#2684FC"/>
<path d="M0.0522461 209.091V269.697C0.0522461 286.364 13.6886 300 30.3554 300H90.9613V209.091H0.0522461Z" fill="#0066DA"/>
<path d="M288.689 29.9555C288.689 13.48 275.342 0 259.03 0H199.711H90.9614V90.9091H202.325V150L288.689 147.28V29.9555Z" fill="#FFBA00"/>
<path d="M202.325 209.091H90.9614V300H199.711H259.03C275.342 300 288.689 286.54 288.689 270.088V150H202.325V209.091Z" fill="#00AC47"/>
<path d="M288.689 77.2725V218.182L202.325 150L288.689 77.2725Z" fill="#00832D"/>
</svg>
