<svg width="18" height="18" viewBox="0 0 18 18" fill="none" xmlns="http://www.w3.org/2000/svg">
<g clip-path="url(#clip0_17_156)">
<path d="M5.87411 0.873796C5.9499 0.873691 6.02569 0.873571 6.10148 0.873439C6.30554 0.873131 6.50959 0.873046 6.71365 0.873023C6.8417 0.872998 6.96975 0.872923 7.0978 0.87283C7.54613 0.872506 7.99446 0.872361 8.44279 0.872389C8.85809 0.87241 9.27338 0.87204 9.68867 0.871484C10.0474 0.871021 10.4061 0.870836 10.7647 0.870858C10.978 0.870867 11.1913 0.870771 11.4046 0.870395C14.2307 0.865759 14.2307 0.865759 15.082 1.26562C15.1142 1.28071 15.1464 1.2958 15.1795 1.31135C15.9877 1.72236 16.5982 2.44506 16.8788 3.30541C17.127 4.12058 17.1265 4.97085 17.1251 5.81479C17.1251 5.90007 17.1251 5.98536 17.1251 6.07065C17.1251 6.27681 17.125 6.48296 17.1247 6.68911C17.1245 6.92932 17.1244 7.16952 17.1244 7.40973C17.1243 7.83798 17.1241 8.26623 17.1237 8.69447C17.1234 9.1101 17.1232 9.52573 17.123 9.94135C17.123 9.97988 17.123 9.97988 17.123 10.0192C17.123 10.1481 17.1229 10.2769 17.1229 10.4058C17.1225 11.4724 17.1219 12.5389 17.1211 13.6055C17.0979 13.6055 17.0747 13.6055 17.0508 13.6055C17.052 13.6448 17.0533 13.6841 17.0546 13.7247C17.0545 13.8979 17.0246 14.0604 16.9893 14.2295C16.9828 14.2605 16.9764 14.2915 16.9698 14.3234C16.7794 15.2156 16.2891 15.98 15.52 16.4835C14.2682 17.2726 12.6725 17.1321 11.2543 17.1305C11.0401 17.1304 10.8258 17.1305 10.6116 17.1306C10.2522 17.1308 9.89277 17.1306 9.53333 17.1303C9.12037 17.1299 8.70741 17.13 8.29445 17.1304C7.93709 17.1307 7.57974 17.1308 7.22238 17.1306C7.01017 17.1305 6.79796 17.1304 6.58575 17.1307C3.04654 17.1341 3.04654 17.1341 1.96628 16.0672C1.35947 15.4479 0.945389 14.6102 0.942625 13.7285C0.944801 13.6879 0.946976 13.6473 0.949217 13.6055C0.926014 13.6055 0.902811 13.6055 0.878905 13.6055C0.877295 12.5187 0.876054 11.4319 0.875314 10.3451C0.875226 10.2163 0.875135 10.0875 0.875042 9.95873C0.875024 9.9331 0.875006 9.90747 0.874987 9.88106C0.874682 9.46789 0.874128 9.05473 0.87348 8.64157C0.872818 8.21653 0.872431 7.79148 0.872289 7.36644C0.872202 7.12816 0.871995 6.88989 0.871471 6.65161C0.870988 6.42662 0.870847 6.20163 0.870952 5.97665C0.870933 5.89476 0.870796 5.81287 0.870523 5.73098C0.866038 4.31526 0.948089 2.97892 1.98839 1.91162C3.05118 0.899724 4.49277 0.873408 5.87411 0.873796Z" fill="#FEFEFE"/>
<path d="M5.87411 0.873796C5.9499 0.873691 6.02569 0.873571 6.10148 0.873439C6.30554 0.873131 6.5096 0.873046 6.71365 0.873023C6.8417 0.872998 6.96975 0.872923 7.0978 0.87283C7.54613 0.872506 7.99446 0.872361 8.4428 0.872389C8.85809 0.87241 9.27338 0.87204 9.68867 0.871484C10.0474 0.871021 10.4061 0.870836 10.7647 0.870858C10.978 0.870867 11.1913 0.870771 11.4046 0.870395C14.2307 0.865759 14.2307 0.865759 15.082 1.26562C15.1142 1.28071 15.1464 1.2958 15.1795 1.31135C15.9877 1.72236 16.5982 2.44506 16.8788 3.30541C17.1368 4.1528 17.1211 5.02718 17.1211 5.90625C11.7612 5.90625 6.40125 5.90625 0.878906 5.90625C0.878906 4.39593 0.88544 3.04319 1.98839 1.91162C3.05119 0.899724 4.49277 0.873408 5.87411 0.873796Z" fill="#FFD325"/>
<path d="M0.949219 13.5703C6.26273 13.5703 11.5763 13.5703 17.0508 13.5703C17.0508 13.9268 17.0508 13.9268 17.025 14.0566C17.0194 14.0851 17.0137 14.1137 17.008 14.1431C17.0018 14.1723 16.9956 14.2016 16.9893 14.2317C16.9828 14.2625 16.9764 14.2934 16.9698 14.3252C16.7786 15.2165 16.2886 15.9803 15.52 16.4835C14.2682 17.2726 12.6725 17.1321 11.2543 17.1305C11.0401 17.1304 10.8258 17.1305 10.6116 17.1306C10.2522 17.1308 9.89277 17.1306 9.53333 17.1303C9.12037 17.1299 8.70741 17.13 8.29445 17.1304C7.93709 17.1307 7.57974 17.1308 7.22238 17.1306C7.01017 17.1305 6.79796 17.1304 6.58575 17.1307C3.04654 17.1341 3.04654 17.1341 1.96628 16.0672C1.29527 15.3823 0.949219 14.5294 0.949219 13.5703Z" fill="#FEFEFE"/>
<path d="M0.878906 13.4648C6.23883 13.4648 11.5988 13.4648 17.1211 13.4648C17.1211 13.5113 17.1211 13.5577 17.1211 13.6055C11.7612 13.6055 6.40125 13.6055 0.878906 13.6055C0.878906 13.5591 0.878906 13.5127 0.878906 13.4648Z" fill="black"/>
<path d="M0.878906 9.80859C6.23883 9.80859 11.5988 9.80859 17.1211 9.80859C17.1211 9.8434 17.1211 9.8782 17.1211 9.91406C11.7612 9.91406 6.40125 9.91406 0.878906 9.91406C0.878906 9.87926 0.878906 9.84445 0.878906 9.80859Z" fill="#0C0C0C"/>
<path d="M15.6445 6.85547C15.728 6.85107 15.728 6.85107 15.8203 6.85547C15.8435 6.87867 15.8667 6.90188 15.8906 6.92578C15.8774 7.00049 15.8774 7.00049 15.8555 7.06641C15.772 7.08838 15.772 7.08838 15.6797 7.10156C15.6565 7.07836 15.6333 7.05516 15.6094 7.03125C15.6226 6.93896 15.6226 6.93896 15.6445 6.85547Z" fill="#AFAFAF"/>
<path d="M8.08594 6.85547C8.16943 6.85107 8.16943 6.85107 8.26172 6.85547C8.28492 6.87867 8.30812 6.90188 8.33203 6.92578C8.31885 7.00049 8.31885 7.00049 8.29688 7.06641C8.21338 7.08838 8.21338 7.08838 8.12109 7.10156C8.09789 7.07836 8.07469 7.05516 8.05078 7.03125C8.06396 6.93896 8.06396 6.93896 8.08594 6.85547Z" fill="#AFAFAF"/>
<path d="M2.14453 6.85547C2.22803 6.85107 2.22803 6.85107 2.32031 6.85547C2.34352 6.87867 2.36672 6.90188 2.39062 6.92578C2.37744 7.00049 2.37744 7.00049 2.35547 7.06641C2.27197 7.08838 2.27197 7.08838 2.17969 7.10156C2.15648 7.07836 2.13328 7.05516 2.10938 7.03125C2.12256 6.93896 2.12256 6.93896 2.14453 6.85547Z" fill="#AFAFAF"/>
<path d="M16.2971 6.85327C16.3395 6.85436 16.3395 6.85436 16.3828 6.85547C16.3962 6.92548 16.4079 6.99584 16.418 7.06641C16.3828 7.10156 16.3828 7.10156 16.2949 7.10596C16.207 7.10156 16.207 7.10156 16.1719 7.06641C16.1675 6.97852 16.1675 6.97852 16.1719 6.89062C16.207 6.85547 16.207 6.85547 16.2971 6.85327Z" fill="#ADADAD"/>
<path d="M13.5879 6.85107C13.6758 6.85547 13.6758 6.85547 13.7109 6.89062C13.7153 6.97852 13.7153 6.97852 13.7109 7.06641C13.6758 7.10156 13.6758 7.10156 13.5857 7.10376C13.5433 7.10267 13.5433 7.10267 13.5 7.10156C13.4866 7.03155 13.4749 6.96119 13.4648 6.89062C13.5 6.85547 13.5 6.85547 13.5879 6.85107Z" fill="#ADADAD"/>
<path d="M11.9707 6.85107C12.0586 6.85547 12.0586 6.85547 12.0938 6.89062C12.0981 6.97852 12.0981 6.97852 12.0938 7.06641C12.0586 7.10156 12.0586 7.10156 11.9685 7.10376C11.9261 7.10267 11.9261 7.10267 11.8828 7.10156C11.8694 7.03155 11.8577 6.96119 11.8477 6.89062C11.8828 6.85547 11.8828 6.85547 11.9707 6.85107Z" fill="#ADADAD"/>
<path d="M10.3557 6.85327C10.3981 6.85436 10.3981 6.85436 10.4414 6.85547C10.4548 6.92548 10.4665 6.99584 10.4766 7.06641C10.4414 7.10156 10.4414 7.10156 10.3535 7.10596C10.2656 7.10156 10.2656 7.10156 10.2305 7.06641C10.2261 6.97852 10.2261 6.97852 10.2305 6.89062C10.2656 6.85547 10.2656 6.85547 10.3557 6.85327Z" fill="#ADADAD"/>
<path d="M9.73828 6.85547C9.83057 6.86865 9.83057 6.86865 9.91406 6.89062C9.93604 6.95654 9.93604 6.95654 9.94922 7.03125C9.92602 7.05445 9.90281 7.07766 9.87891 7.10156C9.78662 7.08838 9.78662 7.08838 9.70312 7.06641C9.68115 7.00049 9.68115 7.00049 9.66797 6.92578C9.69117 6.90258 9.71438 6.87937 9.73828 6.85547Z" fill="#AFAFAF"/>
<path d="M7.64648 6.85107C7.73438 6.85547 7.73438 6.85547 7.76953 6.89062C7.77393 6.97852 7.77393 6.97852 7.76953 7.06641C7.73438 7.10156 7.73438 7.10156 7.64429 7.10376C7.60187 7.10267 7.60187 7.10267 7.55859 7.10156C7.54519 7.03155 7.53352 6.96119 7.52344 6.89062C7.55859 6.85547 7.55859 6.85547 7.64648 6.85107Z" fill="#ADADAD"/>
<path d="M6.0293 6.85107C6.11719 6.85547 6.11719 6.85547 6.15234 6.89062C6.15674 6.97852 6.15674 6.97852 6.15234 7.06641C6.11719 7.10156 6.11719 7.10156 6.0271 7.10376C5.98468 7.10267 5.98468 7.10267 5.94141 7.10156C5.928 7.03155 5.91633 6.96119 5.90625 6.89062C5.94141 6.85547 5.94141 6.85547 6.0293 6.85107Z" fill="#ADADAD"/>
<path d="M2.79712 6.85327C2.83954 6.85436 2.83954 6.85436 2.88281 6.85547C2.89622 6.92548 2.90789 6.99584 2.91797 7.06641C2.88281 7.10156 2.88281 7.10156 2.79492 7.10596C2.70703 7.10156 2.70703 7.10156 2.67188 7.06641C2.66748 6.97852 2.66748 6.97852 2.67188 6.89062C2.70703 6.85547 2.70703 6.85547 2.79712 6.85327Z" fill="#ADADAD"/>
<path d="M16.7344 6.85547C16.7929 6.85397 16.8516 6.85404 16.9102 6.85547C16.9453 6.89063 16.9453 6.89063 16.9475 6.98071C16.9468 7.00899 16.9461 7.03727 16.9453 7.06641C16.8618 7.08838 16.8618 7.08838 16.7695 7.10156C16.7463 7.07836 16.7231 7.05516 16.6992 7.03125C16.7124 6.93897 16.7124 6.93897 16.7344 6.85547Z" fill="#ACACAC"/>
<path d="M15.1172 6.85547C15.1758 6.85397 15.2344 6.85404 15.293 6.85547C15.3281 6.89063 15.3281 6.89063 15.3303 6.98071C15.3296 7.00899 15.3289 7.03727 15.3281 7.06641C15.2446 7.08838 15.2446 7.08838 15.1523 7.10156C15.1291 7.07836 15.1059 7.05516 15.082 7.03125C15.0952 6.93897 15.0952 6.93897 15.1172 6.85547Z" fill="#ACACAC"/>
<path d="M14.6799 6.85327C14.7223 6.85436 14.7223 6.85436 14.7656 6.85547C14.8052 7.02246 14.8052 7.02246 14.7656 7.10156C14.7071 7.10306 14.6484 7.10299 14.5898 7.10156C14.5547 7.06641 14.5547 7.06641 14.5503 6.97852C14.5563 6.85876 14.5597 6.8562 14.6799 6.85327Z" fill="#ADADAD"/>
<path d="M10.793 6.85547C10.8515 6.85397 10.9102 6.85404 10.9688 6.85547C11.0039 6.89063 11.0039 6.89063 11.0061 6.98071C11.0054 7.00899 11.0047 7.03727 11.0039 7.06641C10.9204 7.08838 10.9204 7.08838 10.8281 7.10156C10.8049 7.07836 10.7817 7.05516 10.7578 7.03125C10.771 6.93897 10.771 6.93897 10.793 6.85547Z" fill="#ACACAC"/>
<path d="M9.17578 6.85547C9.23436 6.85397 9.29299 6.85404 9.35156 6.85547C9.38672 6.89063 9.38672 6.89063 9.38892 6.98071C9.38819 7.00899 9.38747 7.03727 9.38672 7.06641C9.30322 7.08838 9.30322 7.08838 9.21094 7.10156C9.18773 7.07836 9.16453 7.05516 9.14062 7.03125C9.15381 6.93897 9.15381 6.93897 9.17578 6.85547Z" fill="#ACACAC"/>
<path d="M8.73853 6.85327C8.78094 6.85436 8.78094 6.85436 8.82422 6.85547C8.86377 7.02246 8.86377 7.02246 8.82422 7.10156C8.76564 7.10306 8.70701 7.10299 8.64844 7.10156C8.61328 7.06641 8.61328 7.06641 8.60889 6.97852C8.61487 6.85876 8.61833 6.8562 8.73853 6.85327Z" fill="#ADADAD"/>
<path d="M7.12134 6.85327C7.16376 6.85436 7.16376 6.85436 7.20703 6.85547C7.24658 7.02246 7.24658 7.02246 7.20703 7.10156C7.14846 7.10306 7.08983 7.10299 7.03125 7.10156C6.99609 7.06641 6.99609 7.06641 6.9917 6.97852C6.99769 6.85876 7.00114 6.8562 7.12134 6.85327Z" fill="#ADADAD"/>
<path d="M4.85156 6.85547C4.91014 6.85397 4.96877 6.85404 5.02734 6.85547C5.0625 6.89063 5.0625 6.89063 5.0647 6.98071C5.06397 7.00899 5.06325 7.03727 5.0625 7.06641C4.979 7.08838 4.979 7.08838 4.88672 7.10156C4.86352 7.07836 4.84031 7.05516 4.81641 7.03125C4.82959 6.93897 4.82959 6.93897 4.85156 6.85547Z" fill="#ADADAD"/>
<path d="M4.41431 6.85327C4.45672 6.85436 4.45672 6.85436 4.5 6.85547C4.51341 6.92548 4.52508 6.99584 4.53516 7.06641C4.5 7.10156 4.5 7.10156 4.40991 7.10376C4.36749 7.10267 4.36749 7.10267 4.32422 7.10156C4.31081 7.03155 4.29914 6.96119 4.28906 6.89062C4.32422 6.85547 4.32422 6.85547 4.41431 6.85327Z" fill="#ACACAC"/>
<path d="M3.23438 6.85547C3.29295 6.85397 3.35158 6.85404 3.41016 6.85547C3.44531 6.89063 3.44531 6.89063 3.44751 6.98071C3.44678 7.00899 3.44606 7.03727 3.44531 7.06641C3.36182 7.08838 3.36182 7.08838 3.26953 7.10156C3.24633 7.07836 3.22312 7.05516 3.19922 7.03125C3.2124 6.93897 3.2124 6.93897 3.23438 6.85547Z" fill="#ACACAC"/>
<path d="M1.61719 6.85547C1.67576 6.85397 1.73439 6.85404 1.79297 6.85547C1.82812 6.89063 1.82812 6.89063 1.83032 6.98071C1.8296 7.00899 1.82887 7.03727 1.82812 7.06641C1.74463 7.08838 1.74463 7.08838 1.65234 7.10156C1.62914 7.07836 1.60594 7.05516 1.58203 7.03125C1.59521 6.93897 1.59521 6.93897 1.61719 6.85547Z" fill="#ACACAC"/>
<path d="M1.17993 6.85327C1.22235 6.85436 1.22235 6.85436 1.26562 6.85547C1.30518 7.02246 1.30518 7.02246 1.26562 7.10156C1.20705 7.10306 1.14842 7.10299 1.08984 7.10156C1.05469 7.06641 1.05469 7.06641 1.05029 6.97852C1.05628 6.85876 1.05974 6.8562 1.17993 6.85327Z" fill="#ADADAD"/>
<path d="M14.0273 6.85547C14.0859 6.85397 14.1445 6.85404 14.2031 6.85547C14.2383 6.89063 14.2383 6.89063 14.2405 6.98071C14.2398 7.00899 14.239 7.03727 14.2383 7.06641C14.1548 7.08838 14.1548 7.08838 14.0625 7.10156C14.0393 7.07836 14.0161 7.05516 13.9922 7.03125C14.0054 6.93897 14.0054 6.93897 14.0273 6.85547Z" fill="#ADADAD"/>
<path d="M12.4102 6.85547C12.4687 6.85397 12.5274 6.85404 12.5859 6.85547C12.6211 6.89063 12.6211 6.89063 12.6233 6.98071C12.6226 7.00899 12.6218 7.03727 12.6211 7.06641C12.5376 7.08838 12.5376 7.08838 12.4453 7.10156C12.4221 7.07836 12.3989 7.05516 12.375 7.03125C12.3882 6.93897 12.3882 6.93897 12.4102 6.85547Z" fill="#ACACAC"/>
<path d="M6.46875 6.85547C6.52732 6.85397 6.58595 6.85404 6.64453 6.85547C6.67969 6.89063 6.67969 6.89063 6.68188 6.98071C6.68116 7.00899 6.68043 7.03727 6.67969 7.06641C6.59619 7.08838 6.59619 7.08838 6.50391 7.10156C6.4807 7.07836 6.4575 7.05516 6.43359 7.03125C6.44678 6.93897 6.44678 6.93897 6.46875 6.85547Z" fill="#ACACAC"/>
<path d="M12.9727 6.85547C13.0316 6.86553 13.0902 6.87719 13.1484 6.89062C13.1704 6.95654 13.1704 6.95654 13.1836 7.03125C13.1604 7.05445 13.1372 7.07766 13.1133 7.10156C13.021 7.08838 13.021 7.08838 12.9375 7.06641C12.936 7.00783 12.9361 6.9492 12.9375 6.89062C12.9491 6.87902 12.9607 6.86742 12.9727 6.85547Z" fill="#ABABAB"/>
<path d="M11.3555 6.85547C11.4144 6.86553 11.473 6.87719 11.5313 6.89062C11.5532 6.95654 11.5532 6.95654 11.5664 7.03125C11.5432 7.05445 11.52 7.07766 11.4961 7.10156C11.4038 7.08838 11.4038 7.08838 11.3203 7.06641C11.3188 7.00783 11.3189 6.9492 11.3203 6.89062C11.3319 6.87902 11.3435 6.86742 11.3555 6.85547Z" fill="#ACACAC"/>
<path d="M5.41406 6.85547C5.47296 6.86553 5.53162 6.87719 5.58984 6.89062C5.61182 6.95654 5.61182 6.95654 5.625 7.03125C5.6018 7.05445 5.57859 7.07766 5.55469 7.10156C5.4624 7.08838 5.4624 7.08838 5.37891 7.06641C5.3774 7.00783 5.37748 6.9492 5.37891 6.89062C5.39051 6.87902 5.40211 6.86742 5.41406 6.85547Z" fill="#ABABAB"/>
<path d="M3.79688 6.85547C3.85578 6.86553 3.91443 6.87719 3.97266 6.89062C3.99463 6.95654 3.99463 6.95654 4.00781 7.03125C3.98461 7.05445 3.96141 7.07766 3.9375 7.10156C3.84522 7.08838 3.84522 7.08838 3.76172 7.06641C3.76022 7.00783 3.76029 6.9492 3.76172 6.89062C3.77332 6.87902 3.78492 6.86742 3.79688 6.85547Z" fill="#ACACAC"/>
</g>
<defs>
<clipPath id="clip0_17_156">
<rect width="18" height="18" fill="white"/>
</clipPath>
</defs>
</svg>
