<svg width="18" height="18" viewBox="0 0 18 18" fill="none" xmlns="http://www.w3.org/2000/svg">
<g clip-path="url(#clip0_28_228)">
<path d="M8.98018 4.1045C9.00534 4.10448 9.0305 4.10446 9.05642 4.10443C10.2027 4.10615 11.2857 4.49577 12.164 5.23829C12.182 5.25342 12.1999 5.26855 12.2184 5.28414C13.118 6.05343 13.7411 7.16555 13.8798 8.34862C13.8961 8.55869 13.8953 8.76963 13.8955 8.98024C13.8955 9.00539 13.8955 9.03055 13.8955 9.05647C13.8938 10.2027 13.5042 11.2858 12.7617 12.1641C12.7465 12.182 12.7314 12.1999 12.7158 12.2184C11.9106 13.16 10.7898 13.7304 9.56246 13.8867C9.38238 13.8951 9.20218 13.8954 9.02193 13.8955C8.99668 13.8955 8.97144 13.8956 8.94543 13.8956C7.79835 13.8939 6.71494 13.5049 5.83589 12.7617C5.81796 12.7466 5.80002 12.7315 5.78155 12.7159C5.0358 12.0782 4.52133 11.2453 4.25386 10.3008C4.24337 10.2648 4.24337 10.2648 4.23266 10.2281C4.0123 9.43904 4.02641 8.48425 4.25386 7.69923C4.26102 7.67303 4.26818 7.64683 4.27556 7.61984C4.62876 6.34902 5.50762 5.32938 6.64016 4.68214C7.36973 4.27642 8.15221 4.1052 8.98018 4.1045Z" fill="#FC4654"/>
<path d="M8.98018 4.1045C9.00534 4.10448 9.0305 4.10446 9.05642 4.10443C10.2027 4.10615 11.2857 4.49577 12.164 5.23829C12.182 5.25342 12.1999 5.26855 12.2184 5.28414C13.118 6.05343 13.7411 7.16555 13.8798 8.34862C13.8961 8.55869 13.8953 8.76963 13.8955 8.98024C13.8955 9.00539 13.8955 9.03055 13.8955 9.05647C13.8938 10.2027 13.5042 11.2858 12.7617 12.1641C12.7465 12.182 12.7314 12.1999 12.7158 12.2184C11.9106 13.16 10.7898 13.7304 9.56246 13.8867C9.38238 13.8951 9.20218 13.8954 9.02193 13.8955C8.99668 13.8955 8.97144 13.8956 8.94543 13.8956C7.79835 13.8939 6.71494 13.5049 5.83589 12.7617C5.81796 12.7466 5.80002 12.7315 5.78155 12.7159C5.0358 12.0782 4.52133 11.2453 4.25386 10.3008C4.24337 10.2648 4.24337 10.2648 4.23266 10.2281C4.0123 9.43904 4.02641 8.48425 4.25386 7.69923C4.26102 7.67303 4.26818 7.64683 4.27556 7.61984C4.62876 6.34902 5.50762 5.32938 6.64016 4.68214C7.36973 4.27642 8.15221 4.1052 8.98018 4.1045ZM5.74776 6.17993C4.95693 7.09933 4.64433 8.26193 4.71955 9.45347C4.83407 10.5421 5.39339 11.5716 6.22042 12.2827C7.19357 13.0528 8.32541 13.3876 9.56026 13.2671C10.6325 13.1127 11.6749 12.5579 12.3417 11.6941C12.3643 11.6636 12.3869 11.633 12.4101 11.6016C12.4312 11.5739 12.4523 11.5463 12.4741 11.5178C13.1215 10.6382 13.4066 9.51706 13.2602 8.43446C13.0894 7.31276 12.5226 6.27039 11.6015 5.58985C11.5739 5.56874 11.5462 5.54762 11.5177 5.52586C9.72493 4.20639 7.21745 4.54479 5.74776 6.17993Z" fill="white"/>
<path d="M15.0556 0.975487C15.3997 1.09768 15.7038 1.25557 15.9961 1.47655C16.046 1.51407 16.046 1.51407 16.0968 1.55235C16.8186 2.11942 17.3179 2.95122 17.4375 3.86717C17.4482 3.98811 17.4533 4.10835 17.4551 4.22972C17.4558 4.25809 17.4564 4.28645 17.4571 4.31567C17.4557 4.44185 17.4491 4.51932 17.3737 4.62248C17.2649 4.69798 17.1824 4.70862 17.0508 4.71092C16.9533 4.66976 16.8964 4.63697 16.8369 4.54915C16.7907 4.42797 16.7862 4.3051 16.7762 4.17699C16.7112 3.50929 16.4819 2.93143 16.0313 2.42577C16.0079 2.39908 15.9845 2.37238 15.9604 2.34488C15.6425 2.00403 15.2388 1.76982 14.8008 1.61717C14.7715 1.6068 14.7423 1.59642 14.7121 1.58573C14.4719 1.51072 14.2295 1.48875 13.9794 1.47336C13.8018 1.45942 13.6996 1.43434 13.5703 1.30077C13.5208 1.20163 13.5266 1.12955 13.5352 1.01952C13.7576 0.564664 14.6678 0.846539 15.0556 0.975487Z" fill="white"/>
<path d="M3.98799 0.795405C4.01548 0.794488 4.04298 0.79357 4.0713 0.792624C4.19935 0.792236 4.27283 0.796165 4.37594 0.875331C4.4663 0.999659 4.47992 1.07622 4.46479 1.23046C4.40152 1.32538 4.35638 1.39014 4.25386 1.4414C4.18279 1.44821 4.1117 1.45485 4.04053 1.46052C3.32953 1.51931 2.72033 1.73302 2.17964 2.21484C2.15295 2.23822 2.12625 2.26161 2.09875 2.2857C1.75628 2.6051 1.5275 3.00686 1.37104 3.44531C1.36067 3.472 1.35029 3.49869 1.3396 3.52619C1.25938 3.75498 1.24131 3.98932 1.22415 4.22974C1.21078 4.39262 1.19261 4.50691 1.08979 4.64062C0.995786 4.71448 0.947663 4.71088 0.826123 4.70654C0.685878 4.67148 0.646704 4.65082 0.562451 4.53515C0.548033 4.42797 0.542406 4.33665 0.544873 4.22973C0.545323 4.2001 0.545773 4.17047 0.546237 4.13994C0.575055 3.22717 1.01461 2.37002 1.66436 1.74093C2.11955 1.32331 2.67039 1.0275 3.26948 0.878901C3.29985 0.871016 3.33021 0.863131 3.36149 0.855006C3.56896 0.808973 3.77621 0.799542 3.98799 0.795405Z" fill="white"/>
<path d="M1.05472 13.3242C1.14766 13.3902 1.15851 13.4247 1.19534 13.5352C1.20206 13.6031 1.20867 13.671 1.21446 13.7391C1.27653 14.4386 1.49517 15.0427 1.96878 15.5742C1.99216 15.6009 2.01555 15.6276 2.03964 15.6551C2.35753 15.996 2.76121 16.2302 3.19925 16.3828C3.22852 16.3932 3.2578 16.4036 3.28796 16.4143C3.52812 16.4893 3.77053 16.5112 4.02062 16.5266C4.19664 16.5404 4.30515 16.5624 4.42972 16.6992C4.47681 16.8204 4.47744 16.9407 4.43851 17.064C4.39456 17.1211 4.39456 17.1211 4.28909 17.1914C3.35767 17.2784 2.52024 16.9347 1.79959 16.3674C1.11831 15.7887 0.633995 14.9433 0.554685 14.0438C0.549261 13.9526 0.546341 13.8617 0.544951 13.7703C0.544297 13.7419 0.543643 13.7135 0.542969 13.6843C0.544375 13.556 0.550273 13.4808 0.629546 13.3776C0.77296 13.2736 0.886076 13.2848 1.05472 13.3242Z" fill="white"/>
<path d="M17.2969 13.3242C17.3738 13.3774 17.3738 13.3774 17.4375 13.4649C17.4519 13.572 17.4575 13.6634 17.4551 13.7703C17.4546 13.7999 17.4542 13.8295 17.4537 13.8601C17.4322 14.5414 17.1791 15.2083 16.7695 15.75C16.732 15.7998 16.732 15.7998 16.6937 15.8507C16.1976 16.4822 15.507 16.9197 14.7305 17.1211C14.6999 17.1291 14.6694 17.1371 14.6379 17.1453C14.4306 17.1909 14.2235 17.2005 14.012 17.2046C13.9845 17.2055 13.957 17.2064 13.9286 17.2074C13.8027 17.2078 13.727 17.2031 13.6239 17.1278C13.5482 17.0189 13.5375 16.9365 13.5352 16.8047C13.5763 16.7072 13.6091 16.6503 13.6969 16.5907C13.8181 16.5446 13.941 16.5401 14.0691 16.53C14.835 16.4544 15.4588 16.1607 15.9961 15.6094C16.0311 15.5749 16.0311 15.5749 16.0668 15.5396C16.5515 15.0299 16.7605 14.3182 16.7892 13.631C16.811 13.4959 16.8635 13.3961 16.9717 13.311C17.0909 13.2779 17.1777 13.2944 17.2969 13.3242Z" fill="white"/>
</g>
<defs>
<clipPath id="clip0_28_228">
<rect width="18" height="18" fill="white"/>
</clipPath>
</defs>
</svg>
