<svg width="18" height="18" viewBox="0 0 18 18" fill="none" xmlns="http://www.w3.org/2000/svg">
<g clip-path="url(#clip0_21_170)">
<path d="M4.05834 0.0527598C4.26602 0.17826 4.42341 0.368416 4.5 0.597682C4.50845 0.702904 4.50845 0.702904 4.50798 0.820953C4.50797 0.887447 4.50797 0.887447 4.50796 0.955285C4.5076 1.00331 4.50724 1.05133 4.50686 1.09934C4.50673 1.14875 4.50663 1.19816 4.50656 1.24756C4.50629 1.3772 4.5056 1.50683 4.50482 1.63647C4.5041 1.76891 4.50378 1.90136 4.50343 2.0338C4.50268 2.29338 4.50148 2.55295 4.5 2.81253C4.5286 2.81243 4.52859 2.81243 4.55777 2.81232C5.68952 2.80838 6.82126 2.80537 7.95301 2.80355C8.08911 2.80333 8.22521 2.8031 8.3613 2.80287C8.40194 2.8028 8.40194 2.8028 8.4434 2.80273C8.88124 2.80197 9.31908 2.80058 9.75692 2.79896C10.2067 2.79732 10.6564 2.79634 11.1062 2.79599C11.3834 2.79575 11.6606 2.79499 11.9378 2.79356C12.1508 2.79251 12.3639 2.79241 12.577 2.79264C12.664 2.7926 12.751 2.79225 12.8381 2.79157C13.4708 2.78689 13.9747 2.82019 14.4844 3.2344C14.5133 3.25615 14.5422 3.27791 14.572 3.30032C14.902 3.57995 15.0976 3.97629 15.1875 4.39456C15.1906 4.44766 15.1918 4.50088 15.1918 4.55406C15.1919 4.58606 15.192 4.61806 15.192 4.65103C15.1919 4.68605 15.1918 4.72107 15.1917 4.75715C15.1918 4.8131 15.1918 4.8131 15.1918 4.87019C15.1919 4.99558 15.1917 5.12098 15.1915 5.24638C15.1915 5.3361 15.1915 5.42583 15.1915 5.51556C15.1915 5.70895 15.1914 5.90233 15.1912 6.09572C15.1909 6.37533 15.1908 6.65493 15.1908 6.93454C15.1907 7.38817 15.1905 7.84181 15.1901 8.29544C15.1898 8.73612 15.1896 9.1768 15.1894 9.61747C15.1894 9.65822 15.1894 9.65822 15.1894 9.69978C15.1894 9.83604 15.1893 9.9723 15.1893 10.1086C15.1889 11.239 15.1883 12.3695 15.1875 13.5C15.2146 13.4997 15.2417 13.4994 15.2697 13.4991C15.5262 13.4963 15.7827 13.4941 16.0393 13.4927C16.1711 13.492 16.303 13.491 16.4348 13.4894C16.5623 13.4879 16.6897 13.487 16.8171 13.4867C16.8656 13.4864 16.914 13.4859 16.9624 13.4852C17.2833 13.4803 17.5129 13.4911 17.7624 13.7097C17.7814 13.7326 17.8003 13.7555 17.8198 13.7791C17.8393 13.8019 17.8588 13.8247 17.8789 13.8482C18.0364 14.0767 18.0237 14.3217 18 14.5899C17.9409 14.824 17.7728 14.9831 17.5781 15.1172C17.4406 15.1835 17.3311 15.1961 17.1791 15.1955C17.1126 15.1955 17.1126 15.1955 17.0447 15.1955C16.9967 15.1951 16.9487 15.1948 16.9007 15.1944C16.8513 15.1943 16.8019 15.1942 16.7525 15.1941C16.6228 15.1938 16.4932 15.1931 16.3636 15.1924C16.2311 15.1916 16.0987 15.1913 15.9662 15.191C15.7066 15.1902 15.4471 15.189 15.1875 15.1875C15.1878 15.2147 15.1881 15.2418 15.1884 15.2697C15.1913 15.5262 15.1934 15.7828 15.1948 16.0393C15.1955 16.1712 15.1965 16.303 15.1981 16.4349C15.1996 16.5623 15.2005 16.6897 15.2008 16.8171C15.2011 16.8656 15.2016 16.914 15.2024 16.9625C15.2072 17.2834 15.1964 17.5129 14.9778 17.7624C14.9549 17.7814 14.932 17.8003 14.9084 17.8199C14.8856 17.8393 14.8629 17.8588 14.8394 17.8789C14.6108 18.0364 14.3658 18.0237 14.0977 18C13.8635 17.9409 13.7044 17.7728 13.5703 17.5782C13.504 17.4406 13.4914 17.3312 13.492 17.1791C13.492 17.1348 13.492 17.0904 13.492 17.0448C13.4924 16.9967 13.4928 16.9487 13.4931 16.9007C13.4933 16.8513 13.4934 16.8019 13.4934 16.7525C13.4937 16.6229 13.4944 16.4932 13.4952 16.3636C13.4959 16.2311 13.4962 16.0987 13.4966 15.9663C13.4973 15.7067 13.4985 15.4471 13.5 15.1875C13.4714 15.1876 13.4714 15.1876 13.4422 15.1877C12.3105 15.1917 11.1787 15.1947 10.047 15.1965C9.91088 15.1967 9.77478 15.197 9.63869 15.1972C9.59805 15.1973 9.59805 15.1973 9.55659 15.1973C9.11875 15.1981 8.68091 15.1995 8.24307 15.2011C7.79332 15.2027 7.34357 15.2037 6.89382 15.2041C6.61662 15.2043 6.33943 15.2051 6.06223 15.2065C5.84916 15.2075 5.63609 15.2076 5.42301 15.2074C5.33598 15.2075 5.24895 15.2078 5.16193 15.2085C4.52918 15.2132 4.02528 15.1799 3.51562 14.7657C3.48671 14.7439 3.45779 14.7221 3.428 14.6997C3.098 14.4201 2.90239 14.0238 2.8125 13.6055C2.80944 13.5524 2.80814 13.4992 2.80817 13.446C2.8081 13.414 2.80803 13.382 2.80796 13.349C2.80806 13.314 2.80816 13.279 2.80827 13.2429C2.80824 13.2056 2.80821 13.1683 2.80818 13.1299C2.80812 13.0045 2.80831 12.8791 2.8085 12.7537C2.80851 12.6639 2.80851 12.5742 2.80849 12.4845C2.80848 12.2911 2.80858 12.0977 2.80878 11.9043C2.80906 11.6247 2.80916 11.3451 2.8092 11.0655C2.80928 10.6119 2.80951 10.1582 2.80984 9.70461C2.81017 9.26393 2.81041 8.82325 2.81056 8.38258C2.81057 8.35542 2.81058 8.32825 2.81059 8.30027C2.81064 8.16401 2.81068 8.02775 2.81073 7.8915C2.81109 6.76101 2.81171 5.63052 2.8125 4.50003C2.78537 4.50034 2.75825 4.50065 2.7303 4.50097C2.47378 4.5038 2.21726 4.50594 1.96073 4.50731C1.82886 4.50804 1.69701 4.50903 1.56515 4.51063C1.43773 4.51217 1.31031 4.51301 1.18288 4.51337C1.13444 4.51363 1.086 4.51413 1.03757 4.51489C0.716642 4.51975 0.487094 4.50898 0.237575 4.29032C0.218631 4.26744 0.199688 4.24455 0.180171 4.22097C0.160684 4.19818 0.141197 4.17538 0.121119 4.1519C-0.0363606 3.92334 -0.0237225 3.67837 -4.77582e-06 3.41018C0.0590878 3.17606 0.227238 3.01694 0.42187 2.88284C0.559435 2.81658 0.668864 2.80393 0.820923 2.80454C0.887417 2.80455 0.887417 2.80455 0.955255 2.80456C1.00327 2.80492 1.05129 2.80529 1.09931 2.80566C1.14872 2.80579 1.19813 2.80589 1.24753 2.80596C1.37717 2.80623 1.5068 2.80692 1.63644 2.8077C1.76888 2.80842 1.90133 2.80874 2.03377 2.80909C2.29335 2.80985 2.55292 2.81104 2.8125 2.81253C2.81218 2.7854 2.81187 2.75828 2.81155 2.73033C2.80872 2.47381 2.80659 2.21729 2.80521 1.96076C2.80448 1.82889 2.80349 1.69704 2.80189 1.56518C2.80035 1.43776 2.79952 1.31034 2.79915 1.18291C2.79889 1.13447 2.79839 1.08603 2.79763 1.0376C2.79277 0.716672 2.80354 0.487125 3.0222 0.237605C3.04508 0.218662 3.06797 0.199718 3.09155 0.180201C3.11434 0.160714 3.13714 0.141227 3.16062 0.12115C3.40898 -0.0499715 3.78258 -0.0694417 4.05834 0.0527598ZM4.5 4.50003C4.49759 5.60715 4.49572 6.71428 4.49461 7.82141C4.49448 7.9521 4.49434 8.0828 4.4942 8.21349C4.49417 8.23951 4.49415 8.26553 4.49412 8.29234C4.49366 8.71368 4.49283 9.13502 4.49186 9.55637C4.49087 9.98868 4.49029 10.421 4.49007 10.8533C4.48993 11.1201 4.48947 11.3868 4.48861 11.6536C4.48799 11.8582 4.48792 12.0627 4.48807 12.2672C4.48804 12.3512 4.48783 12.4351 4.48742 12.519C4.4869 12.6335 4.48702 12.7479 4.48731 12.8624C4.48701 12.8957 4.4867 12.929 4.48638 12.9634C4.48761 13.143 4.49692 13.2786 4.60546 13.4297C4.76077 13.5322 4.95378 13.5096 5.13338 13.5085C5.16914 13.5085 5.20489 13.5086 5.24173 13.5087C5.36167 13.5088 5.48161 13.5084 5.60155 13.508C5.68748 13.508 5.7734 13.508 5.85933 13.508C6.04439 13.5081 6.22945 13.5079 6.41451 13.5075C6.68207 13.5069 6.94964 13.5067 7.2172 13.5066C7.65132 13.5065 8.08544 13.506 8.51956 13.5053C8.94124 13.5047 9.36292 13.5042 9.7846 13.5039C9.8106 13.5039 9.83659 13.5039 9.86338 13.5038C9.9938 13.5037 10.1242 13.5037 10.2546 13.5036C11.3364 13.5028 12.4182 13.5016 13.5 13.5C13.5024 12.3929 13.5043 11.2858 13.5054 10.1786C13.5055 10.048 13.5056 9.91726 13.5058 9.78656C13.5058 9.76054 13.5058 9.73452 13.5059 9.70772C13.5063 9.28637 13.5072 8.86503 13.5081 8.44368C13.5091 8.01137 13.5097 7.57906 13.5099 7.14675C13.5101 6.87998 13.5105 6.6132 13.5114 6.34643C13.512 6.14189 13.5121 5.93736 13.5119 5.73282C13.512 5.64889 13.5122 5.56496 13.5126 5.48104C13.5131 5.36657 13.513 5.25211 13.5127 5.13764C13.513 5.10433 13.5133 5.07102 13.5136 5.0367C13.5124 4.85708 13.5031 4.72142 13.3945 4.57034C13.2392 4.46788 13.0462 4.49047 12.8666 4.49157C12.8309 4.49151 12.7951 4.49145 12.7583 4.49139C12.6383 4.49127 12.5184 4.49166 12.3984 4.49204C12.3125 4.49206 12.2266 4.49205 12.1407 4.49201C11.9556 4.492 11.7705 4.4922 11.5855 4.49259C11.3179 4.49316 11.0504 4.49335 10.7828 4.49343C10.3487 4.49359 9.91455 4.49406 9.48043 4.49472C9.05875 4.49537 8.63707 4.49586 8.21539 4.49616C8.18939 4.49618 8.1634 4.4962 8.13661 4.49622C8.00619 4.49631 7.87578 4.4964 7.74536 4.49649C6.66357 4.49722 5.58178 4.49846 4.5 4.50003Z" fill="url(#paint0_linear_21_170)"/>
</g>
<defs>
<linearGradient id="paint0_linear_21_170" x1="9" y1="-0.0255127" x2="9" y2="18.0142" gradientUnits="userSpaceOnUse">
<stop stop-color="#E9C2FF"/>
<stop offset="1" stop-color="#EAF2FF"/>
</linearGradient>
<clipPath id="clip0_21_170">
<rect width="18" height="18" fill="white"/>
</clipPath>
</defs>
</svg>
