<svg width="256" height="256" viewBox="0 0 256 256" fill="none" xmlns="http://www.w3.org/2000/svg">
<g clip-path="url(#clip0_2_15087)">
<path d="M195.368 60.6309H60.6316V195.368H195.368V60.6309Z" fill="white"/>
<path d="M195.368 255.999L256 195.368L225.684 190.195L195.368 195.368L189.835 223.097L195.368 255.999Z" fill="#EA4335"/>
<path d="M0 195.368V235.789C0 246.955 9.04421 255.999 20.2105 255.999H60.6316L66.8569 225.684L60.6316 195.368L27.5992 190.195L0 195.368Z" fill="#188038"/>
<path d="M256 60.6316V20.2105C256 9.04421 246.956 0 235.789 0H195.368C191.68 15.0359 189.835 26.1011 189.835 33.1957C189.835 40.2903 191.68 49.4356 195.368 60.6316C208.778 64.4715 218.883 66.3914 225.684 66.3914C232.485 66.3914 242.59 64.4715 256 60.6316Z" fill="#1967D2"/>
<path d="M256 60.6309H195.368V195.368H256V60.6309Z" fill="#FBBC04"/>
<path d="M195.368 195.369H60.6316V256.001H195.368V195.369Z" fill="#34A853"/>
<path d="M195.368 0H20.2105C9.04421 0 0 9.04421 0 20.2105V195.368H60.6316V60.6316H195.368V0Z" fill="#4285F4"/>
<path d="M88.2695 165.153C83.2337 161.751 79.7474 156.782 77.8442 150.214L89.5326 145.397C90.5937 149.439 92.4463 152.572 95.0905 154.795C97.7179 157.018 100.918 158.113 104.657 158.113C108.48 158.113 111.764 156.951 114.509 154.627C117.255 152.302 118.636 149.338 118.636 145.751C118.636 142.079 117.187 139.081 114.291 136.757C111.394 134.433 107.756 133.271 103.411 133.271H96.6568V121.7H102.72C106.459 121.7 109.608 120.69 112.168 118.669C114.728 116.648 116.008 113.886 116.008 110.366C116.008 107.233 114.863 104.74 112.573 102.871C110.282 101.001 107.385 100.058 103.865 100.058C100.429 100.058 97.7011 100.968 95.68 102.804C93.6603 104.644 92.1418 106.968 91.2674 109.557L79.6968 104.74C81.2295 100.395 84.0421 96.5551 88.1684 93.2372C92.2947 89.9193 97.5663 88.252 103.966 88.252C108.699 88.252 112.96 89.1614 116.733 90.9972C120.505 92.833 123.469 95.3762 125.608 98.6098C127.747 101.86 128.808 105.498 128.808 109.54C128.808 113.667 127.815 117.153 125.827 120.016C123.84 122.879 121.398 125.069 118.501 126.601V127.292C122.242 128.834 125.491 131.367 127.899 134.618C130.341 137.902 131.571 141.827 131.571 146.408C131.571 150.989 130.408 155.081 128.084 158.669C125.76 162.256 122.543 165.086 118.467 167.14C114.375 169.195 109.777 170.239 104.674 170.239C98.7621 170.256 93.3053 168.555 88.2695 165.153ZM160.067 107.149L147.234 116.429L140.817 106.694L163.84 90.0877H172.665V168.42H160.067V107.149Z" fill="#4285F4"/>
</g>
<defs>
<clipPath id="clip0_2_15087">
<rect width="256" height="256" fill="white"/>
</clipPath>
</defs>
</svg>
