<svg width="96" height="96" viewBox="0 0 96 96" fill="none" xmlns="http://www.w3.org/2000/svg">
<path d="M32 21V37H16" fill="#EA4335"/>
<path d="M32 21V37H53.3333V48.0222L69.3333 35.0444V26.3333C69.3333 22.7778 67.5556 21 64 21" fill="#FFBA00"/>
<path d="M31.6444 74.3333V58.3333H53.3333V47.6667L69.3333 60.2889V69C69.3333 72.5556 67.5556 74.3333 64 74.3333" fill="#00AC47"/>
<path d="M53.3333 47.6667L69.3333 34.6889V60.6445" fill="#00832D"/>
<path d="M69.3333 34.6889L76.8 28.6445C78.4 27.4 80 27.4 80 29.8889V65.4445C80 67.9333 78.4 67.9333 76.8 66.6889L69.3333 60.6445" fill="#00AC47"/>
<path d="M16 57.9778V69C16 72.5556 17.7778 74.3333 21.3333 74.3333H32V57.9778" fill="#0066DA"/>
<path d="M16 37H32V58.3333H16" fill="#2684FC"/>
</svg>
